<?xml version="1.0" standalone="no"?>
<!DOCTYPE svg PUBLIC "-//W3C//DTD SVG 20010904//EN"
 "http://www.w3.org/TR/2001/REC-SVG-20010904/DTD/svg10.dtd">
<svg version="1.0" xmlns="http://www.w3.org/2000/svg"
 width="640.000000pt" height="640.000000pt" viewBox="0 0 640.000000 640.000000"
 preserveAspectRatio="xMidYMid meet">
<metadata>
Created by potrace 1.14, written by Peter Selinger 2001-2017
</metadata>
<g transform="translate(0.000000,640.000000) scale(0.100000,-0.100000)"
fill="#000000" stroke="none">
<path d="M1010 6283 c0 -173 -11 -549 -19 -698 -5 -71 -8 -192 -7 -267 1 -125
3 -138 21 -152 27 -20 30 -17 115 149 95 183 135 241 182 258 9 3 29 25 44 49
15 24 60 75 100 113 41 39 74 76 74 83 0 19 67 88 114 118 69 44 70 46 74 267
l3 197 -350 0 -351 0 0 -117z m220 -320 c-1 -28 -3 -34 -10 -22 -8 14 -3 59 6
59 2 0 4 -17 4 -37z m30 -51 c0 -14 -11 -21 -26 -15 -21 8 -17 23 6 23 11 0
20 -4 20 -8z"/>
<path d="M4080 6370 c0 -16 5 -30 10 -30 6 0 10 -7 10 -15 0 -8 6 -15 13 -15
8 0 11 14 9 45 -3 36 -8 45 -23 45 -14 0 -19 -7 -19 -30z"/>
<path d="M4244 6385 c-3 -8 -1 -29 5 -47 16 -48 31 -262 31 -426 -1 -78 4
-168 9 -200 13 -71 16 -175 13 -562 -1 -168 2 -321 7 -341 5 -21 4 -79 -2
-138 -10 -101 -9 -112 23 -213 5 -16 4 -43 -2 -65 -13 -49 -13 -39 -3 -313 5
-129 7 -314 6 -410 -1 -96 1 -193 5 -215 l6 -39 19 37 c18 34 27 75 49 223 13
91 14 286 2 394 -7 52 -12 129 -12 171 0 43 -7 96 -17 124 -13 41 -14 58 -4
109 17 92 13 870 -6 1061 -12 123 -12 166 -2 240 7 50 11 131 10 180 -2 137
15 395 28 408 6 6 11 17 11 24 0 20 -169 18 -176 -2z"/>
<path d="M4519 6388 c-1 -18 1 -319 6 -933 13 -1524 14 -2434 4 -2670 -6 -137
-13 -610 -15 -1050 -2 -440 -7 -1010 -10 -1267 l-6 -468 412 0 413 0 -9 263
c-4 144 -7 289 -6 322 1 33 3 188 4 345 2 257 0 295 -20 390 -25 127 -31 418
-19 1020 4 212 9 664 12 1005 3 341 8 683 10 760 2 77 7 239 10 360 9 349 15
535 20 610 2 39 7 189 10 335 3 146 8 299 10 340 3 41 7 145 10 230 3 85 12
191 19 235 8 44 17 104 21 133 l6 52 -441 0 c-345 0 -440 -3 -441 -12z"/>
<path d="M2745 6209 c-71 -23 -165 -36 -381 -57 -44 -4 -79 -13 -90 -23 -11
-9 -36 -26 -57 -37 -44 -23 -136 -107 -138 -125 -1 -7 -1 -16 0 -21 1 -4 -6
-14 -16 -21 -10 -8 -18 -17 -19 -22 -2 -18 -23 -61 -34 -68 -6 -4 -18 -24 -27
-46 -8 -21 -21 -39 -29 -39 -8 0 -14 -8 -14 -17 -1 -17 -2 -17 -13 -1 -15 19
-47 7 -47 -18 0 -8 -6 -14 -12 -13 -30 4 -38 -3 -38 -31 0 -23 -5 -30 -19 -30
-20 0 -35 -25 -24 -42 3 -6 1 -8 -4 -5 -13 8 -70 -11 -96 -32 -44 -37 -47 -42
-37 -62 11 -20 30 -26 30 -9 0 6 4 10 9 10 5 0 7 -8 4 -18 -2 -10 1 -31 7 -46
8 -23 13 -27 23 -17 9 10 8 15 -5 25 -10 7 -15 16 -11 19 3 4 11 -1 18 -10 13
-17 51 -11 41 6 -8 12 3 41 15 41 5 0 9 -6 9 -14 0 -9 8 -12 25 -8 14 2 25 7
25 11 0 4 7 16 16 27 8 10 13 13 9 7 -4 -8 1 -13 12 -13 17 -1 17 -2 -1 -15
-17 -13 -17 -15 -4 -15 9 0 20 5 23 10 4 6 15 8 25 5 10 -3 21 -1 25 5 10 16
25 12 19 -5 -4 -8 -1 -15 5 -15 6 0 11 6 11 14 0 9 9 14 23 14 51 -3 78 2 71
14 -8 13 12 3 39 -20 17 -15 32 -10 32 11 0 7 12 13 28 15 15 2 27 -1 27 -7 0
-6 9 -11 21 -11 11 0 18 4 15 8 -2 4 10 8 29 8 19 0 32 -3 30 -7 -3 -3 25 -4
62 -1 47 3 64 1 59 -7 -5 -7 2 -11 18 -11 13 0 32 -3 40 -6 12 -5 15 -2 10 9
-4 12 2 18 21 23 14 3 29 3 33 0 3 -4 -4 -9 -16 -13 -12 -3 -19 -9 -16 -14 3
-5 11 -6 17 -2 18 11 120 12 141 1 12 -7 15 -13 8 -17 -6 -3 8 -6 30 -6 24 0
43 -6 46 -13 2 -6 10 -12 18 -12 8 0 40 -16 70 -35 42 -27 52 -31 44 -16 -5
11 -15 23 -20 26 -6 3 -10 11 -10 16 0 11 57 -16 62 -30 1 -5 23 -12 47 -16
39 -6 43 -5 32 9 -11 13 -9 14 18 6 21 -6 31 -5 34 3 2 8 10 6 21 -6 20 -20
22 -20 44 -8 45 22 81 21 112 -5 32 -28 41 -23 13 8 -18 21 -1 25 19 5 24 -24
56 -38 63 -27 4 6 24 -2 50 -20 24 -16 48 -30 53 -30 6 0 12 -6 15 -12 3 -9
10 -6 21 9 14 19 20 21 47 11 17 -6 33 -16 36 -24 2 -7 12 -10 20 -7 11 4 14
3 9 -6 -5 -8 -1 -14 13 -18 12 -3 21 -11 21 -19 0 -7 9 -18 21 -24 15 -9 19
-18 15 -35 -4 -14 0 -27 10 -36 29 -24 55 -96 57 -156 0 -19 6 -33 13 -33 6 0
14 -10 18 -22 9 -36 7 -41 -9 -28 -9 7 -19 10 -22 6 -4 -4 -2 -11 5 -15 7 -4
13 -19 12 -32 0 -13 0 -36 -1 -51 0 -27 0 -28 -24 -12 -31 20 -33 1 -3 -20 12
-9 19 -16 15 -16 -4 0 -2 -10 5 -22 7 -13 13 -27 14 -33 7 -75 42 -139 69
-129 8 4 15 -3 17 -18 2 -13 8 -22 14 -21 6 1 10 -8 9 -21 -4 -33 -50 -78 -79
-78 -14 0 -27 -7 -30 -14 -7 -19 -26 -17 -43 4 -8 9 -11 11 -7 3 7 -14 6 -14
-65 5 -17 5 -22 4 -17 -4 4 -7 1 -12 -8 -12 -9 0 -16 -4 -16 -9 0 -6 -15 -7
-33 -4 -23 3 -37 0 -46 -11 -7 -9 -20 -16 -27 -16 -8 0 -14 -5 -14 -12 0 -6
-6 -4 -13 6 -17 23 -55 17 -107 -16 -29 -20 -40 -23 -40 -12 0 8 6 14 14 14 7
0 19 7 26 15 7 8 10 15 7 15 -13 0 -62 -31 -63 -40 -1 -5 -2 -14 -3 -20 0 -5
-7 -10 -15 -10 -35 0 -135 -192 -114 -218 11 -13 26 -91 32 -157 1 -16 6 -39
12 -50 11 -23 12 -45 1 -62 -5 -8 2 -26 18 -47 14 -19 35 -59 45 -89 20 -58
63 -128 113 -186 47 -55 77 -129 66 -160 -19 -54 -35 -77 -84 -124 -57 -55
-82 -68 -125 -62 -24 3 -30 0 -30 -15 0 -30 49 -44 93 -25 46 19 47 19 47 -5
0 -11 6 -20 13 -21 6 0 2 -5 -11 -11 -15 -8 -21 -17 -16 -30 3 -10 1 -18 -5
-18 -6 0 -11 -7 -11 -16 0 -8 3 -13 8 -11 10 7 27 -15 27 -33 0 -8 -6 -17 -13
-20 -10 -4 -9 -11 6 -30 28 -36 37 -71 21 -81 -12 -8 -11 -12 2 -22 9 -6 14
-17 12 -24 -5 -15 7 -22 53 -27 21 -3 40 -10 42 -16 2 -5 10 -10 17 -10 7 0
16 -7 19 -16 9 -24 7 -36 -5 -28 -14 8 -82 17 -125 16 -17 0 -53 -11 -79 -23
-52 -25 -86 -27 -175 -11 -91 15 -177 -18 -353 -140 -20 -14 -45 -19 -101 -19
-59 0 -79 -5 -97 -20 -12 -10 -19 -22 -16 -26 4 -3 51 -8 104 -10 54 -2 111
-8 127 -13 38 -13 56 -13 56 1 0 19 30 41 47 35 8 -4 31 2 49 13 31 19 137 32
150 19 3 -4 13 -4 21 -1 8 3 19 0 24 -8 5 -8 9 -9 9 -2 0 6 9 9 20 6 17 -4 20
-14 20 -54 0 -27 -2 -49 -5 -49 -3 0 -12 14 -19 31 l-13 31 -7 -33 c-5 -26 -9
-31 -16 -19 -5 8 -12 11 -16 7 -4 -4 -13 -2 -21 4 -10 9 -13 8 -13 -1 0 -7 -7
-10 -15 -6 -50 20 -48 20 -34 -2 7 -12 16 -17 19 -12 3 5 11 5 20 0 12 -8 12
-10 -3 -16 -29 -11 -19 -23 13 -14 23 7 32 5 40 -8 9 -16 9 -15 10 1 0 10 5
17 11 15 16 -5 13 -22 -7 -33 -10 -5 -24 -16 -32 -22 -7 -7 -22 -13 -32 -13
-10 0 -22 -4 -25 -10 -6 -9 38 -15 93 -12 23 1 30 -12 12 -23 -5 -3 -10 -11
-10 -17 0 -6 9 -3 20 7 11 10 17 22 14 26 -3 5 0 9 5 9 14 0 14 -13 1 -26 -16
-16 14 -67 42 -71 42 -7 52 -49 13 -59 -14 -3 -25 -11 -25 -17 0 -8 -3 -8 -11
0 -14 14 -39 6 -39 -13 0 -8 11 -15 28 -15 15 -1 44 -3 65 -5 22 -2 35 1 32 6
-4 6 0 10 7 10 19 0 41 37 27 46 -6 4 -15 0 -20 -7 -7 -11 -9 -10 -9 4 0 10
-4 15 -10 12 -5 -3 -10 3 -10 14 0 11 -4 23 -10 26 -14 9 -12 26 3 24 38 -5
57 2 57 21 0 24 8 25 38 4 12 -8 22 -12 22 -8 0 3 6 1 13 -5 17 -13 27 -5 27
23 1 18 3 16 17 -9 l17 -30 10 28 c6 16 17 27 28 27 10 0 18 6 18 13 0 6 9 23
19 36 13 17 24 22 37 17 18 -7 18 -8 0 -22 -16 -11 -17 -14 -4 -14 9 0 18 5
20 11 5 15 38 0 38 -18 0 -8 4 -12 9 -9 5 3 6 -15 3 -41 -4 -33 -1 -49 10 -57
8 -6 17 -18 20 -27 5 -13 2 -16 -13 -12 -18 5 -25 -10 -20 -40 1 -5 -12 -14
-29 -20 -17 -6 -30 -19 -30 -28 0 -10 -4 -19 -10 -21 -5 -1 0 -23 10 -47 21
-46 18 -70 -6 -50 -17 14 -19 -2 -2 -19 9 -9 9 -12 0 -12 -10 0 -10 -5 -1 -22
11 -21 11 -22 -4 -9 -14 11 -17 11 -18 0 -1 -8 -1 -18 0 -23 1 -5 -5 -4 -13 3
-12 10 -14 9 -9 -8 3 -11 11 -25 18 -31 17 -14 9 -41 -10 -34 -7 3 -15 -5 -19
-22 -9 -35 -19 -23 -20 25 -1 38 -16 73 -16 38 0 -10 -6 -16 -12 -14 -7 1 -14
-8 -16 -21 -2 -12 1 -22 6 -22 6 0 13 -7 16 -16 4 -11 0 -14 -17 -12 -18 2
-21 -1 -19 -21 2 -14 0 -21 -7 -17 -5 4 -14 -2 -20 -11 -8 -15 -11 -11 -11 22
-1 22 -4 34 -7 27 -2 -6 -9 -9 -15 -6 -6 4 -8 -1 -4 -14 5 -15 1 -22 -15 -27
-14 -5 -25 -2 -30 6 -10 16 -51 19 -61 4 -5 -6 -8 -4 -8 5 -1 10 -10 4 -26
-15 l-25 -30 5 45 c3 25 3 38 0 30 -10 -24 -46 -60 -61 -60 -16 0 -16 5 -3 31
7 13 8 25 1 37 -9 14 -10 14 -11 1 0 -20 -23 -69 -32 -69 -5 0 -8 7 -8 15 0
18 -16 20 -26 3 -4 -6 -2 -14 4 -16 7 -2 12 -8 12 -13 0 -15 -22 -10 -36 9
-10 12 -13 13 -14 3 0 -10 -3 -11 -14 -2 -11 9 -18 8 -30 -5 -16 -15 -18 -15
-32 2 -14 18 -14 18 -12 -5 5 -37 -18 -36 -27 1 l-8 33 -7 -30 c-4 -16 -8 -23
-9 -15 -1 13 -2 13 -12 0 -9 -12 -10 -11 -6 8 3 12 1 22 -4 22 -5 0 -9 7 -9
15 0 8 -5 15 -10 15 -7 0 -7 -6 0 -20 8 -16 8 -20 -4 -20 -8 0 -18 -9 -21 -20
-3 -11 -11 -20 -16 -20 -15 0 -10 52 8 72 9 10 11 18 5 18 -6 0 -18 -10 -26
-22 -9 -12 -16 -19 -16 -15 0 5 -7 1 -16 -7 -8 -9 -21 -13 -27 -9 -7 4 -20 6
-30 4 -15 -2 -17 2 -12 19 6 18 3 20 -17 16 -13 -2 -35 -9 -50 -15 -23 -9 -28
-7 -33 9 -4 11 -11 20 -16 20 -6 0 -8 4 -5 9 6 9 -66 32 -99 31 -11 -1 -33 2
-50 5 -16 3 -40 8 -52 11 -14 3 -20 9 -17 18 6 15 -10 20 -96 32 -46 6 -67 14
-37 14 9 0 17 4 17 10 0 5 -13 8 -29 6 -19 -2 -32 2 -35 11 -4 9 -13 12 -26 8
-12 -4 -20 -2 -20 5 0 6 5 8 10 5 6 -3 10 -3 10 0 0 11 -28 35 -40 35 -6 0 -8
6 -5 12 4 7 -5 0 -20 -16 -18 -20 -33 -27 -50 -24 -16 4 -22 1 -18 -9 3 -7 9
-10 15 -7 5 3 12 -3 15 -15 3 -12 13 -21 25 -21 12 0 18 -6 16 -17 -2 -12 3
-17 13 -15 9 1 21 -9 27 -23 6 -14 18 -25 27 -25 8 0 20 -9 27 -20 7 -11 18
-20 25 -20 7 0 13 -4 13 -10 0 -5 7 -10 15 -10 8 0 17 -11 21 -24 4 -16 11
-23 20 -19 8 3 23 -2 34 -12 10 -9 24 -14 31 -9 7 4 10 3 6 -3 -7 -12 56 -73
75 -73 6 0 20 -7 30 -17 10 -9 18 -11 18 -5 0 7 10 6 28 -4 15 -7 32 -14 39
-14 7 0 10 -7 7 -15 -4 -8 -12 -15 -20 -15 -20 0 -17 -16 4 -24 9 -3 22 -8 27
-11 6 -3 16 -1 24 4 12 8 12 12 2 24 -16 20 -5 24 44 17 35 -5 37 -7 18 -13
-32 -12 -28 -23 10 -31 24 -5 29 -9 17 -16 -8 -5 -11 -12 -7 -16 4 -4 15 -1
24 8 15 15 15 18 -1 33 -9 9 -16 22 -16 28 0 7 7 4 14 -6 16 -21 27 -22 20 -2
-7 18 -4 18 32 5 34 -13 80 -21 119 -21 28 1 29 0 11 -14 -21 -16 -16 -32 5
-19 46 28 244 -11 244 -48 0 -9 4 -20 8 -24 4 -4 7 0 7 9 0 9 5 19 11 22 15
10 102 -16 113 -33 4 -7 24 -20 42 -28 32 -14 35 -17 31 -53 -2 -29 -13 -48
-40 -74 -20 -19 -37 -42 -37 -51 0 -9 -4 -16 -10 -16 -5 0 -13 -1 -17 -2 -9
-4 -63 -58 -63 -64 0 -2 11 -9 25 -14 24 -9 35 -30 15 -30 -5 0 -10 -6 -10
-14 0 -8 -11 -23 -25 -34 -14 -11 -25 -23 -25 -26 0 -4 -9 -17 -20 -28 -14
-16 -17 -24 -8 -29 16 -10 -56 -79 -85 -80 l-22 0 23 -9 c17 -7 22 -17 22 -44
0 -31 -5 -37 -55 -66 -30 -17 -55 -36 -55 -41 0 -21 -45 -59 -71 -59 -21 0
-31 -7 -40 -29 -9 -20 -16 -26 -21 -18 -6 9 -11 9 -25 -1 -10 -6 -28 -16 -40
-22 -13 -5 -23 -17 -23 -25 0 -9 5 -13 10 -10 6 3 10 0 10 -8 0 -25 -62 -50
-110 -44 -103 11 -287 83 -445 175 -94 54 -312 197 -443 291 -196 140 -220
158 -283 210 -193 162 -334 225 -425 191 -22 -9 -26 -15 -21 -39 4 -17 0 -36
-9 -49 -13 -19 -12 -22 3 -31 10 -6 13 -11 7 -11 -5 0 -15 5 -21 11 -21 21
-88 14 -124 -14 -19 -14 -52 -30 -74 -36 -22 -6 -55 -20 -73 -31 -40 -25 -43
-45 -4 -35 15 4 34 8 42 9 9 1 21 5 28 10 6 4 12 3 12 -3 0 -6 7 -8 16 -4 12
4 15 0 12 -23 -3 -26 -6 -28 -48 -29 -25 -1 -55 -7 -67 -13 -12 -7 -35 -12
-52 -12 -18 0 -41 -10 -57 -25 -15 -14 -39 -28 -53 -32 -25 -6 -50 -29 -51
-46 0 -5 4 -5 10 -2 5 3 10 4 10 0 0 -3 -12 -10 -26 -15 -17 -7 -24 -15 -20
-25 5 -15 0 -18 -64 -41 -9 -3 -11 -8 -4 -12 26 -16 10 -40 -30 -47 -23 -4
-35 -9 -29 -12 7 -3 13 -11 13 -19 0 -8 5 -14 12 -14 6 0 23 -13 37 -30 14
-16 62 -50 106 -75 44 -25 73 -45 66 -45 -18 0 -138 56 -173 81 -14 11 -33 19
-42 19 -9 0 -16 4 -16 8 0 13 -79 12 -87 -2 -11 -18 -43 -28 -44 -13 0 7 -4 1
-10 -11 -5 -13 -18 -26 -29 -29 -11 -3 -20 -9 -20 -14 0 -4 -18 -13 -40 -19
-53 -14 -65 -34 -16 -28 20 2 36 2 36 -2 0 -3 -27 -24 -60 -47 -44 -32 -60
-49 -60 -67 0 -16 5 -23 17 -22 24 3 73 28 69 35 -2 3 7 6 20 6 13 0 24 -3 24
-7 0 -4 10 -4 23 1 27 10 57 -7 57 -33 0 -9 5 -16 10 -16 16 0 12 -15 -10 -40
-11 -13 -20 -24 -20 -25 0 -8 36 2 42 12 5 6 17 9 29 6 16 -5 18 -8 7 -15 -8
-6 8 -7 47 -4 154 16 225 17 225 4 0 -9 3 -9 10 2 8 13 10 12 15 -1 4 -11 16
-15 36 -13 18 2 28 0 24 -6 -3 -6 -16 -10 -28 -10 -17 0 -19 -2 -7 -9 8 -6 17
-8 21 -5 4 2 18 0 32 -5 17 -7 28 -6 37 2 10 9 14 9 17 0 2 -7 11 -9 20 -6 11
4 14 2 9 -5 -5 -8 -2 -10 8 -6 11 4 16 0 16 -10 0 -9 5 -16 11 -16 5 0 7 5 4
10 -3 6 1 10 9 10 8 0 20 -9 26 -20 6 -11 20 -20 32 -20 16 0 18 -3 9 -13 -13
-16 -5 -24 79 -79 30 -20 78 -57 105 -83 31 -29 37 -37 15 -21 -136 102 -217
148 -347 195 -147 54 -198 64 -357 66 -161 3 -176 1 -177 -24 0 -11 -2 -12 -6
-3 -4 11 -8 11 -22 -1 -21 -18 -102 -49 -109 -42 -3 3 4 13 17 21 27 19 14 40
-18 29 -20 -6 -21 -13 -21 -121 0 -88 3 -114 13 -114 15 0 142 34 172 45 20 8
20 8 1 -13 -10 -12 -22 -20 -26 -17 -4 2 -16 -2 -26 -10 -10 -8 -31 -15 -46
-15 -16 0 -28 -4 -28 -9 0 -5 -13 -11 -30 -14 -27 -6 -30 -11 -30 -42 l0 -35
1975 0 1975 0 -24 38 c-13 21 -34 63 -47 92 -69 165 -196 289 -383 375 -88 40
-186 137 -185 182 0 15 16 73 35 128 36 106 59 176 101 317 24 80 28 86 54 90
16 3 29 2 29 -1 0 -4 20 -28 45 -55 25 -27 45 -55 45 -62 0 -7 9 -18 20 -24
11 -6 20 -17 20 -25 0 -25 17 -25 43 -1 14 13 24 26 21 29 -4 4 17 10 85 23 8
1 17 7 20 11 3 5 42 8 86 8 102 -1 131 12 145 67 14 50 2 84 -34 97 -13 5
-110 8 -217 7 -163 -2 -199 -5 -227 -20 -28 -14 -36 -15 -50 -4 -10 8 -13 9
-9 1 4 -6 3 -14 -1 -17 -5 -3 -15 19 -22 49 -12 49 -11 68 9 182 13 71 25 142
28 159 3 20 15 37 32 47 32 19 211 189 211 200 0 5 9 16 19 25 11 10 30 35 42
57 50 91 98 188 119 242 30 80 35 91 59 145 12 26 21 50 21 53 0 3 11 22 24
43 21 32 26 56 36 192 6 85 15 193 20 240 19 170 29 257 42 360 18 147 18 538
-1 549 -10 6 -12 20 -7 47 5 28 4 35 -3 24 -9 -13 -11 -12 -12 5 -3 60 -11
124 -19 155 -6 19 -9 60 -8 90 0 30 3 42 5 25 2 -16 8 -50 14 -75 6 -25 13
-56 16 -70 7 -37 13 -37 13 -1 0 18 -5 42 -11 54 -12 21 -15 539 -4 557 3 5
-1 26 -10 46 -18 44 -18 47 -4 38 13 -7 3 89 -11 117 -5 8 -11 33 -13 55 -6
47 -69 245 -95 294 -22 43 -47 82 -87 135 -16 22 -38 59 -47 83 -10 23 -26 61
-35 84 -10 23 -36 65 -58 95 -22 29 -56 74 -75 100 -41 57 -85 103 -122 127
-15 10 -39 42 -53 71 -30 60 -36 66 -168 169 -94 73 -163 116 -188 116 -7 0
-26 11 -44 24 -52 40 -103 56 -178 56 -52 0 -75 -4 -89 -17 -18 -16 -18 -16
-12 0 5 14 0 17 -37 16 -24 0 -57 -5 -74 -10z m-623 -221 c-7 -7 -13 -21 -13
-32 -1 -17 -2 -17 -6 -4 -5 19 15 63 25 54 3 -4 0 -12 -6 -18z m58 18 c0 -3
-4 -8 -10 -11 -5 -3 -10 -1 -10 4 0 6 5 11 10 11 6 0 10 -2 10 -4z m-35 -46
c3 -5 1 -10 -4 -10 -6 0 -11 5 -11 10 0 6 2 10 4 10 3 0 8 -4 11 -10z m65 -77
c-25 -26 -46 -50 -48 -53 -2 -2 -7 2 -12 10 -7 11 -5 18 6 25 9 6 32 22 51 38
52 40 53 33 3 -20z m-208 -125 c-7 -7 -12 -8 -12 -2 0 14 12 26 19 19 2 -3 -1
-11 -7 -17z m28 -13 c0 -8 -4 -15 -10 -15 -5 0 -7 7 -4 15 4 8 8 15 10 15 2 0
4 -7 4 -15z m-181 -180 c1 -23 -2 -26 -9 -15 -5 8 -9 31 -9 50 0 29 2 31 9 15
5 -11 9 -33 9 -50z m1116 -135 c3 -5 1 -10 -4 -10 -6 0 -11 5 -11 10 0 6 2 10
4 10 3 0 8 -4 11 -10z m755 -304 c14 -18 14 -19 -8 -7 -12 7 -20 17 -16 22 3
6 7 9 8 7 1 -2 8 -12 16 -22z m47 -173 c0 -16 -1 -20 -4 -10 -2 9 -9 17 -14
17 -5 0 -9 5 -9 10 0 24 26 7 27 -17z m-10 -229 c-3 -3 -12 -4 -19 -1 -8 3 -5
6 6 6 11 1 17 -2 13 -5z m-537 -463 c0 -5 -7 -11 -14 -14 -10 -4 -13 -1 -9 9
6 15 23 19 23 5z m582 -37 c35 -5 64 -24 39 -24 -6 0 -11 -5 -11 -11 0 -5 4
-8 9 -5 13 8 24 -45 12 -57 -7 -7 -29 -5 -68 6 -32 9 -91 24 -130 33 -58 13
-73 21 -73 35 0 31 106 43 222 23z m-202 -119 c0 -1 -7 -18 -15 -36 l-14 -34
-1 42 c0 34 3 41 15 37 8 -4 15 -7 15 -9z m320 -5 c0 -5 -2 -10 -4 -10 -3 0
-8 5 -11 10 -3 6 -1 10 4 10 6 0 11 -4 11 -10z m-200 -24 c0 -3 -4 -8 -10 -11
-5 -3 -10 -1 -10 4 0 6 5 11 10 11 6 0 10 -2 10 -4z m-300 -16 c0 -5 -2 -10
-4 -10 -3 0 -8 5 -11 10 -3 6 -1 10 4 10 6 0 11 -4 11 -10z m209 -56 c2 -2 1
-11 -3 -20 -5 -13 -9 -14 -21 -4 -12 10 -15 9 -15 -4 0 -18 39 -38 54 -28 5 3
6 -2 3 -12 -4 -10 -3 -15 3 -11 6 3 10 13 10 21 0 8 9 14 20 14 13 0 18 -5 14
-15 -4 -8 -11 -15 -17 -15 -6 0 -7 -3 -4 -7 4 -3 17 2 28 13 22 19 22 19 14
-6 -7 -23 -7 -23 10 -7 16 17 18 17 30 0 7 -9 11 -22 9 -28 -2 -5 28 -20 67
-32 55 -17 76 -20 91 -12 15 8 22 8 28 -1 5 -8 9 -7 14 6 6 16 8 16 24 -2 64
-71 96 -139 73 -153 -12 -8 -2 -113 15 -156 7 -17 5 -18 -8 -8 -17 15 -28 7
-28 -20 0 -13 -5 -17 -16 -13 -12 5 -15 2 -9 -11 4 -10 9 -35 12 -55 4 -29 2
-39 -11 -44 -9 -3 -16 -16 -16 -28 0 -17 -2 -18 -10 -6 -8 13 -10 12 -10 -4 0
-11 7 -28 16 -38 13 -13 14 -21 5 -31 -6 -8 -7 -17 -3 -22 4 -4 -4 -4 -17 0
-15 5 -21 3 -17 -3 8 -13 -4 -43 -15 -37 -4 3 -5 13 -2 21 5 13 1 15 -18 9
-13 -4 -28 -14 -33 -23 -7 -12 -10 -12 -18 -1 -5 9 -6 -1 -1 -26 4 -22 7 -50
8 -62 0 -13 3 -23 7 -23 9 0 19 -84 22 -183 2 -42 6 -80 9 -84 4 -3 2 -12 -3
-18 -7 -9 -7 -21 2 -40 10 -22 9 -28 -2 -35 -14 -9 -30 4 -30 25 0 6 5 3 10
-5 6 -9 10 -10 10 -3 0 6 -8 18 -17 25 -19 14 -63 90 -63 107 0 5 -12 22 -27
38 -16 16 -42 44 -59 63 -40 45 -81 80 -94 80 -16 0 -60 31 -60 42 0 5 -11 26
-25 46 -18 27 -25 50 -25 87 -1 27 -8 68 -16 90 -9 22 -16 48 -17 57 -1 9 -5
15 -8 12 -4 -2 -10 0 -14 6 -3 5 -2 10 3 10 5 0 7 11 4 25 -5 29 5 32 24 8 7
-10 14 -13 14 -6 0 6 -4 15 -10 18 -5 3 -10 19 -10 36 0 16 -4 29 -10 29 -5 0
-10 13 -10 29 0 17 -5 33 -10 36 -6 4 -8 10 -5 15 9 15 -14 60 -30 60 -10 0
-13 -5 -9 -12 5 -7 3 -8 -5 -3 -7 4 -10 17 -7 28 3 12 0 27 -6 34 -6 7 -7 13
-3 13 3 0 -3 16 -16 36 -12 20 -18 39 -13 43 5 3 9 12 10 19 3 33 4 34 19 22
9 -8 15 -8 15 -2 0 6 15 12 33 14 27 2 33 8 35 31 2 19 9 27 23 27 11 0 19 7
19 18 0 9 -4 13 -8 7 -4 -5 -17 -10 -30 -11 -18 -1 -22 4 -19 18 3 11 1 15 -5
12 -6 -4 -9 -1 -6 7 6 19 53 28 108 22 25 -3 47 -7 49 -9z m-304 -34 c-3 -5
-10 -10 -16 -10 -5 0 -9 5 -9 10 0 6 7 10 16 10 8 0 12 -4 9 -10z m747 -68
c-3 -10 -1 -13 6 -8 8 5 12 0 12 -13 0 -25 -8 -26 -32 -4 -21 19 -23 34 -6 51
15 15 29 -3 20 -26z m-558 -644 c3 -13 1 -24 -4 -26 -6 -2 -10 -9 -10 -16 0
-7 -11 -23 -24 -35 -17 -16 -30 -20 -50 -15 -26 6 -26 7 -10 25 9 11 27 19 40
19 29 0 38 14 19 30 -12 10 -13 16 -4 26 17 21 36 17 43 -8z m56 -529 c0 -5 4
-8 9 -5 5 4 7 -3 4 -14 -6 -23 -6 -23 -22 8 -8 14 -8 22 -1 22 5 0 10 -5 10
-11z m200 -59 c0 -5 -4 -10 -10 -10 -5 0 -10 5 -10 10 0 6 5 10 10 10 6 0 10
-4 10 -10z m-442 -113 c6 -5 12 -26 12 -48 0 -36 -2 -40 -20 -34 -16 5 -19 3
-13 -11 5 -13 3 -16 -10 -11 -13 5 -17 1 -17 -14 0 -16 4 -19 21 -14 15 5 19
4 15 -4 -4 -6 -2 -11 3 -11 6 0 11 -5 11 -12 0 -9 -3 -9 -11 -1 -9 9 -22 7
-52 -8 -44 -23 -101 -20 -111 6 -6 17 9 29 26 19 8 -5 10 13 5 70 l-7 78 50
-4 c28 -1 50 0 50 4 0 9 30 6 48 -5z m47 3 c6 -10 -5 -64 -12 -57 -2 2 -8 18
-13 36 -7 24 -6 31 5 31 8 0 16 -4 20 -10z m85 -213 c0 -8 -7 -14 -15 -14 -8
0 -15 6 -15 14 0 7 7 13 15 13 8 0 15 -6 15 -13z m-1320 -467 c-10 -6 -9 -9 1
-12 7 -2 9 -10 5 -16 -5 -9 -11 -8 -23 3 -12 12 -12 19 -3 30 7 8 17 12 22 9
6 -4 6 -9 -2 -14z m140 -46 c0 -19 -16 -10 -31 17 -10 19 -9 20 10 9 12 -6 21
-18 21 -26z m140 -33 c0 -5 -12 -6 -27 -3 -24 5 -25 6 -8 12 21 8 35 4 35 -9z
m867 -63 c-3 -8 -6 -5 -6 6 -1 11 2 17 5 13 3 -3 4 -12 1 -19z m16 -900 c2
-18 0 -36 -5 -39 -6 -4 -6 -9 1 -14 7 -3 10 -14 7 -23 -3 -10 -10 -62 -16
-117 -21 -200 -22 -205 -44 -220 -29 -21 -73 -19 -103 5 -14 11 -31 20 -38 20
-7 0 -31 18 -54 40 -36 35 -41 45 -41 85 0 33 4 45 15 45 8 0 15 5 15 10 0 6
-5 10 -10 10 -6 0 -2 17 9 38 10 20 21 61 24 90 5 45 3 51 -9 41 -12 -9 -14
-6 -14 21 0 25 3 30 13 23 13 -11 121 -2 133 10 4 4 31 7 60 7 51 0 52 -1 57
-32z m-296 -194 c-3 -3 -12 -4 -19 -1 -8 3 -5 6 6 6 11 1 17 -2 13 -5z m-257
-88 c0 -3 -4 -8 -10 -11 -5 -3 -10 -1 -10 4 0 6 5 11 10 11 6 0 10 -2 10 -4z
m-2490 -374 c0 -5 -11 -14 -25 -20 -31 -14 -33 1 -2 16 28 14 27 13 27 4z"/>
<path d="M3517 3560 c3 -11 12 -20 20 -20 11 0 11 4 3 20 -6 11 -15 20 -19 20
-5 0 -7 -9 -4 -20z"/>
<path d="M3690 3355 c0 -8 5 -15 10 -15 6 0 10 7 10 15 0 8 -4 15 -10 15 -5 0
-10 -7 -10 -15z"/>
<path d="M3880 3009 c0 -5 5 -7 10 -4 6 3 10 8 10 11 0 2 -4 4 -10 4 -5 0 -10
-5 -10 -11z"/>
<path d="M3240 2500 c-1 -8 -3 -29 -4 -46 -3 -27 -1 -31 15 -27 11 3 19 10 19
17 -1 20 -28 72 -30 56z"/>
<path d="M1741 5686 c4 -4 -4 -19 -17 -33 -30 -32 -32 -53 -3 -27 31 28 41 51
27 60 -7 4 -10 4 -7 0z"/>
<path d="M1768 5673 c-4 -14 1 -18 22 -18 23 0 26 2 16 18 -6 9 -16 17 -22 17
-7 0 -14 -8 -16 -17z"/>
<path d="M1746 5621 c-17 -6 -17 -8 -4 -14 10 -3 19 0 22 9 3 8 4 14 3 13 -1
0 -11 -4 -21 -8z"/>
<path d="M1641 5584 c0 -11 3 -14 6 -6 3 7 2 16 -1 19 -3 4 -6 -2 -5 -13z"/>
<path d="M1623 5477 c4 -10 7 -27 7 -38 0 -25 17 -24 31 3 10 18 9 20 -5 15
-10 -4 -15 -3 -12 2 3 5 -2 15 -11 22 -15 12 -16 12 -10 -4z"/>
<path d="M2910 5370 c8 -5 20 -10 25 -10 6 0 3 5 -5 10 -8 5 -19 10 -25 10 -5
0 -3 -5 5 -10z"/>
<path d="M3060 5370 c-9 -6 -10 -10 -3 -10 6 0 15 5 18 10 8 12 4 12 -15 0z"/>
<path d="M2978 5353 c12 -2 32 -2 45 0 12 2 2 4 -23 4 -25 0 -35 -2 -22 -4z"/>
<path d="M1477 5253 c-6 -16 -14 -30 -17 -33 -15 -13 -52 -82 -46 -87 3 -3 9
3 13 13 3 10 9 21 12 24 21 18 64 72 54 66 -16 -9 -16 -1 -3 25 6 10 8 19 5
19 -3 0 -11 -12 -18 -27z"/>
<path d="M1432 5098 c-8 -8 -8 -15 -1 -24 7 -9 7 -20 -1 -36 -11 -22 -10 -22
4 -4 9 11 16 25 16 32 0 7 3 19 6 28 7 19 -7 21 -24 4z"/>
<path d="M3580 4836 c0 -1 5 -17 11 -35 15 -43 30 -40 16 4 -6 19 -14 35 -19
35 -4 0 -8 -2 -8 -4z"/>
<path d="M3216 4364 c-8 -21 -8 -24 4 -24 6 0 10 6 10 14 0 8 8 17 18 19 13 4
12 5 -4 6 -12 0 -25 -6 -28 -15z"/>
<path d="M2494 4362 c4 -7 -7 -13 -31 -17 -21 -3 -51 -8 -66 -10 -15 -3 -26
-1 -22 4 7 12 -85 11 -109 -2 -16 -8 -18 -6 -13 8 5 11 3 15 -5 12 -7 -2 -12
-10 -10 -16 1 -6 -3 -11 -8 -11 -6 0 -10 -7 -8 -16 2 -10 -3 -19 -9 -21 -7 -3
-13 2 -13 11 0 12 -10 14 -52 10 -49 -4 -52 -3 -34 11 11 8 15 15 8 15 -6 0
-19 -8 -29 -19 -21 -21 -69 -35 -77 -22 -4 5 0 12 6 14 8 4 7 6 -4 6 -9 1 -19
-7 -21 -16 -4 -17 -5 -17 -6 0 -1 24 -31 21 -71 -8 -19 -14 -38 -25 -43 -25
-5 0 -31 -16 -57 -35 -26 -19 -53 -35 -60 -35 -7 0 -10 -7 -7 -14 4 -9 -2 -17
-14 -21 -27 -9 -24 -24 4 -18 12 3 18 1 12 -4 -13 -11 -47 -75 -42 -80 2 -2
17 1 32 7 45 17 41 3 -4 -17 -22 -10 -41 -20 -41 -24 0 -3 11 -12 25 -19 14
-7 25 -17 25 -22 0 -5 10 -6 22 -2 21 6 22 5 8 -11 -14 -16 -12 -17 20 -10 48
10 72 24 64 37 -4 7 -3 8 4 4 7 -4 17 -4 23 0 8 4 7 9 -2 15 -9 5 -5 10 13 14
15 4 29 13 32 20 3 8 23 19 45 26 23 7 41 16 41 21 0 4 11 8 24 8 14 0 37 5
53 11 39 16 66 19 165 22 66 2 89 -1 93 -11 3 -8 0 -12 -7 -9 -7 2 -20 -1 -28
-8 -8 -8 -69 -32 -135 -54 -141 -48 -184 -70 -246 -125 -25 -23 -70 -50 -100
-60 -74 -26 -82 -36 -26 -36 44 0 62 -12 35 -23 -8 -3 -5 -6 5 -6 10 -1 27 4
39 10 11 6 34 12 51 15 18 2 71 16 119 31 67 21 88 32 88 46 0 22 27 34 42 19
6 -6 18 -8 27 -3 9 4 43 9 75 10 33 1 63 4 66 6 3 2 12 -1 20 -6 13 -7 13 -10
1 -18 -9 -6 -6 -8 12 -8 19 0 24 4 20 16 -4 13 -2 13 7 -1 11 -19 40 -25 40
-9 0 5 -7 12 -16 15 -9 4 -14 9 -11 12 3 3 14 1 25 -5 15 -8 22 -8 26 2 3 6 4
0 2 -15 -2 -19 1 -28 10 -28 8 0 14 -9 14 -20 0 -24 13 -26 30 -5 7 8 16 13
20 10 5 -3 11 -2 14 3 7 12 -26 38 -46 34 -12 -2 -15 2 -11 16 3 15 12 18 39
16 24 -2 34 2 34 12 0 10 12 14 39 14 53 0 73 29 23 33 -11 0 -19 4 -17 7 2 3
35 5 74 4 l70 -2 7 32 c3 17 9 36 13 41 3 6 6 21 6 35 0 20 -6 26 -28 28 -21
3 -27 8 -23 20 15 54 18 62 26 62 5 0 7 -8 4 -17 -2 -10 0 -7 7 7 6 14 15 33
20 42 13 26 11 32 -6 18 -13 -11 -15 -8 -15 14 0 45 -24 27 -66 -49 -11 -20
-24 -36 -30 -34 -5 2 -8 7 -6 12 1 4 -2 7 -6 7 -4 0 -6 30 -5 68 4 66 3 67
-12 39 -16 -27 -17 -28 -32 -10 -14 17 -14 17 -9 0 3 -11 9 -31 12 -45 l6 -27
-21 30 -21 30 0 -35 -1 -35 -18 23 c-19 21 -38 31 -26 13 3 -5 -13 -2 -35 6
-22 9 -40 20 -40 25 0 17 30 20 60 5 16 -9 30 -12 30 -7 0 4 -8 11 -17 14 -15
6 -15 8 -3 16 12 8 11 10 -7 10 -12 0 -29 3 -39 7 -11 4 -15 3 -10 -5z m251
-136 c0 -15 -4 -21 -9 -16 -5 5 -6 16 -3 24 9 22 12 20 12 -8z m-560 -66 c3
-5 -1 -10 -9 -10 -8 0 -18 5 -21 10 -3 6 1 10 9 10 8 0 18 -4 21 -10z m-85
-10 c0 -5 -2 -10 -4 -10 -3 0 -8 5 -11 10 -3 6 -1 10 4 10 6 0 11 -4 11 -10z
m357 -112 c17 -19 17 -20 -2 -34 -34 -25 -60 -14 -63 27 -3 34 -1 36 22 32 14
-3 33 -14 43 -25z m226 12 c20 -18 -11 -17 -33 1 l-25 20 25 -6 c14 -4 29 -11
33 -15z m67 -11 c0 -6 -4 -7 -10 -4 -5 3 -10 11 -10 16 0 6 5 7 10 4 6 -3 10
-11 10 -16z m-446 -21 c-7 -26 -23 -55 -25 -48 -4 21 -6 56 -2 63 2 4 11 7 19
7 11 0 13 -6 8 -22z m-164 -112 c0 -5 -7 -3 -15 4 -8 7 -12 17 -9 22 7 10 24
-9 24 -26z"/>
<path d="M2190 4340 c0 -5 7 -7 15 -4 8 4 15 8 15 10 0 2 -7 4 -15 4 -8 0 -15
-4 -15 -10z"/>
<path d="M2716 4308 c-18 -25 -20 -38 -7 -38 5 0 14 14 20 30 12 36 8 38 -13
8z"/>
<path d="M3190 4320 c-13 -8 -12 -10 3 -10 9 0 17 5 17 10 0 12 -1 12 -20 0z"/>
<path d="M1335 4270 c-4 -11 -10 -18 -14 -16 -4 3 -8 -1 -8 -9 0 -8 4 -15 9
-15 4 0 8 5 8 11 0 5 3 8 8 6 4 -3 8 6 8 19 2 29 -2 31 -11 4z"/>
<path d="M2672 3900 c-9 -16 -25 -30 -35 -30 -10 0 -15 -5 -12 -10 10 -16 43
6 60 40 20 39 9 39 -13 0z"/>
<path d="M2246 3910 c-15 -5 -16 -9 -7 -14 7 -5 18 -3 24 3 14 14 6 20 -17 11z"/>
<path d="M2330 3911 c0 -6 5 -13 10 -16 6 -3 10 1 10 9 0 9 -4 16 -10 16 -5 0
-10 -4 -10 -9z"/>
<path d="M2168 3903 c7 -3 16 -2 19 1 4 3 -2 6 -13 5 -11 0 -14 -3 -6 -6z"/>
<path d="M1132 3843 c-8 -8 -11 -21 -8 -30 4 -10 2 -14 -8 -10 -7 3 -19 0 -25
-6 -9 -9 -14 -8 -21 4 -7 12 -28 16 -94 17 -77 1 -87 -1 -101 -21 -15 -22 -20
-104 -7 -122 11 -17 35 -12 62 13 14 13 33 30 42 39 26 24 95 9 137 -29 29
-26 34 -37 32 -67 -2 -44 -18 -61 -62 -70 -26 -5 -39 -16 -54 -46 -11 -22 -26
-45 -34 -51 -13 -10 -13 -19 -1 -67 7 -31 17 -54 22 -51 4 3 8 -4 8 -15 0 -12
4 -21 8 -21 5 0 15 -11 22 -25 12 -22 20 -25 67 -25 39 0 62 -6 82 -21 16 -11
38 -19 51 -17 20 3 18 6 -18 33 -22 16 -38 34 -35 38 3 4 -1 14 -7 22 -20 24
-21 107 -3 120 32 24 52 133 43 235 -2 19 0 52 3 73 3 20 2 35 -3 32 -5 -3 -9
-13 -8 -23 0 -9 -7 -35 -16 -57 l-16 -40 6 56 c6 54 5 56 -18 54 -20 -2 -24 3
-28 46 -4 40 -7 45 -18 32z"/>
<path d="M1280 3774 c0 -8 5 -12 10 -9 6 4 8 11 5 16 -9 14 -15 11 -15 -7z"/>
<path d="M1070 3655 c0 -9 5 -15 11 -13 6 2 11 8 11 13 0 5 -5 11 -11 13 -6 2
-11 -4 -11 -13z"/>
<path d="M4339 3309 c-1 -13 -3 -42 -5 -64 -6 -67 -14 -223 -19 -345 -5 -142
-13 -276 -21 -355 -4 -39 0 -84 10 -128 21 -88 21 -269 2 -325 -23 -65 -29
-149 -30 -428 -1 -244 0 -263 18 -283 11 -12 16 -21 13 -21 -4 0 2 -16 13 -35
11 -20 20 -44 20 -55 0 -26 16 -34 25 -12 16 41 33 732 23 945 -4 73 -2 131 5
153 8 26 7 98 -3 267 -7 128 -14 293 -16 367 -2 149 -17 326 -27 337 -4 3 -7
-5 -8 -18z"/>
<path d="M1540 3260 c0 -5 5 -10 10 -10 6 0 10 5 10 10 0 6 -4 10 -10 10 -5 0
-10 -4 -10 -10z"/>
<path d="M2936 3215 c-52 -18 -60 -28 -46 -55 8 -15 17 -19 28 -15 9 4 33 11
52 17 19 5 44 13 55 19 11 5 41 7 67 5 55 -5 68 6 36 28 -28 20 -137 21 -192
1z"/>
<path d="M991 3167 c-9 -27 -11 -235 -6 -854 3 -450 8 -826 11 -835 15 -51 76
14 283 302 67 93 118 254 85 267 -13 5 -13 7 0 22 8 9 17 48 21 86 9 90 7 248
-4 255 -4 3 -8 23 -8 45 -2 97 -5 129 -15 153 -6 15 -10 69 -9 120 2 87 1 94
-18 99 -12 3 -21 14 -21 25 0 13 -6 18 -17 17 -52 -7 -164 90 -182 158 -6 23
-16 45 -21 48 -6 4 -19 23 -30 43 -11 20 -28 48 -38 61 l-19 24 -12 -36z"/>
<path d="M2982 3020 c-7 -11 -8 -20 -3 -20 9 0 24 30 18 36 -1 2 -8 -6 -15
-16z"/>
<path d="M3300 3020 c0 -5 5 -10 11 -10 5 0 7 5 4 10 -3 6 -8 10 -11 10 -2 0
-4 -4 -4 -10z"/>
<path d="M2890 2946 c0 -9 30 -14 35 -6 4 6 -3 10 -14 10 -12 0 -21 -2 -21 -4z"/>
<path d="M2864 2915 c3 -24 12 -27 27 -8 9 11 10 14 2 9 -7 -4 -13 -2 -13 3 0
6 -4 11 -9 11 -5 0 -8 -7 -7 -15z"/>
<path d="M2895 2890 c-3 -5 -1 -10 4 -10 6 0 11 5 11 10 0 6 -2 10 -4 10 -3 0
-8 -4 -11 -10z"/>
<path d="M2815 2860 c-3 -5 -1 -10 4 -10 6 0 11 5 11 10 0 6 -2 10 -4 10 -3 0
-8 -4 -11 -10z"/>
<path d="M2732 2840 c0 -14 2 -19 5 -12 2 6 2 18 0 25 -3 6 -5 1 -5 -13z"/>
<path d="M2607 2813 c-11 -10 -8 -20 6 -20 8 0 14 6 14 14 0 14 -10 17 -20 6z"/>
<path d="M2530 2794 c0 -8 5 -12 10 -9 6 4 8 11 5 16 -9 14 -15 11 -15 -7z"/>
<path d="M2695 2799 c-11 -17 1 -21 15 -4 8 9 8 15 2 15 -6 0 -14 -5 -17 -11z"/>
<path d="M2548 2737 c-35 -14 -46 -38 -15 -33 12 2 21 9 20 15 -2 6 3 11 11
11 8 0 18 5 21 10 7 12 -1 11 -37 -3z"/>
<path d="M2475 2680 c-3 -5 -1 -10 4 -10 6 0 11 5 11 10 0 6 -2 10 -4 10 -3 0
-8 -4 -11 -10z"/>
<path d="M2337 2663 c-4 -3 -7 -11 -7 -17 0 -6 5 -5 12 2 6 6 9 14 7 17 -3 3
-9 2 -12 -2z"/>
<path d="M2480 2640 c-9 -6 -10 -10 -3 -10 6 0 15 5 18 10 8 12 4 12 -15 0z"/>
<path d="M2535 2600 c-3 -5 -1 -10 4 -10 6 0 11 5 11 10 0 6 -2 10 -4 10 -3 0
-8 -4 -11 -10z"/>
<path d="M2306 2575 c-3 -8 -1 -15 4 -15 6 0 10 7 10 15 0 8 -2 15 -4 15 -2 0
-6 -7 -10 -15z"/>
<path d="M2404 2489 c-27 -29 -27 -31 -5 -19 24 12 24 12 17 -26 -5 -22 -8
-47 -9 -56 -1 -10 -5 -18 -10 -18 -4 0 -6 -4 -2 -10 10 -16 36 2 34 24 -3 45
1 71 10 58 6 -10 11 -9 22 4 12 15 12 17 0 9 -11 -6 -13 -4 -8 9 4 10 3 15 -3
11 -18 -11 -32 5 -19 21 24 29 2 23 -27 -7z"/>
<path d="M2887 2482 c-4 -6 -14 -9 -22 -5 -8 3 -15 0 -15 -6 0 -6 13 -11 28
-11 15 0 33 -5 39 -11 7 -7 12 -3 15 15 4 22 3 24 -13 16 -12 -7 -19 -6 -21 2
-3 9 -6 9 -11 0z"/>
<path d="M2339 2463 c-13 -16 -12 -17 4 -4 9 7 17 15 17 17 0 8 -8 3 -21 -13z"/>
<path d="M2950 2456 c0 -9 5 -16 10 -16 6 0 10 4 10 9 0 6 -4 13 -10 16 -5 3
-10 -1 -10 -9z"/>
<path d="M2980 2440 c0 -5 5 -10 11 -10 5 0 7 5 4 10 -3 6 -8 10 -11 10 -2 0
-4 -4 -4 -10z"/>
<path d="M3026 2283 c-6 -14 -5 -15 5 -6 7 7 10 15 7 18 -3 3 -9 -2 -12 -12z"/>
<path d="M3070 2284 c0 -8 5 -12 10 -9 6 3 10 10 10 16 0 5 -4 9 -10 9 -5 0
-10 -7 -10 -16z"/>
<path d="M3143 2233 c-1 -33 0 -35 7 -13 11 35 11 50 2 50 -5 0 -9 -17 -9 -37z"/>
<path d="M2284 2245 c-10 -8 -14 -15 -8 -15 6 0 17 7 24 15 16 19 9 19 -16 0z"/>
<path d="M3290 2249 c0 -5 5 -7 10 -4 6 3 10 8 10 11 0 2 -4 4 -10 4 -5 0 -10
-5 -10 -11z"/>
<path d="M3095 2160 c-3 -5 -1 -10 4 -10 6 0 11 5 11 10 0 6 -2 10 -4 10 -3 0
-8 -4 -11 -10z"/>
<path d="M3317 2163 c-4 -3 -7 -11 -7 -17 0 -6 5 -5 12 2 6 6 9 14 7 17 -3 3
-9 2 -12 -2z"/>
<path d="M2068 2113 c6 -2 18 -2 25 0 6 3 1 5 -13 5 -14 0 -19 -2 -12 -5z"/>
<path d="M2165 2080 c4 -6 11 -8 16 -5 14 9 11 15 -7 15 -8 0 -12 -5 -9 -10z"/>
<path d="M1955 1980 c-3 -5 1 -10 10 -10 9 0 13 5 10 10 -3 6 -8 10 -10 10 -2
0 -7 -4 -10 -10z"/>
<path d="M2125 1980 c3 -5 8 -10 11 -10 2 0 4 5 4 10 0 6 -5 10 -11 10 -5 0
-7 -4 -4 -10z"/>
<path d="M3450 1956 c0 -2 7 -9 15 -16 9 -7 15 -8 15 -2 0 5 -7 12 -15 16 -8
3 -15 4 -15 2z"/>
<path d="M2253 1933 c9 -2 23 -2 30 0 6 3 -1 5 -18 5 -16 0 -22 -2 -12 -5z"/>
<path d="M2258 1903 c7 -3 16 -2 19 1 4 3 -2 6 -13 5 -11 0 -14 -3 -6 -6z"/>
<path d="M3141 1810 c0 -8 4 -22 9 -30 12 -18 12 -2 0 25 -6 13 -9 15 -9 5z"/>
<path d="M2975 1800 c3 -5 8 -10 11 -10 2 0 4 5 4 10 0 6 -5 10 -11 10 -5 0
-7 -4 -4 -10z"/>
<path d="M3014 1776 c-8 -22 3 -33 18 -18 9 9 9 15 0 24 -9 9 -13 7 -18 -6z"/>
<path d="M2330 1610 c-11 -7 -6 -10 20 -10 26 0 31 3 20 10 -8 5 -17 10 -20
10 -3 0 -12 -5 -20 -10z"/>
<path d="M2440 1545 c0 -8 5 -15 10 -15 6 0 10 7 10 15 0 8 -4 15 -10 15 -5 0
-10 -7 -10 -15z"/>
<path d="M1462 1520 c0 -14 2 -19 5 -12 2 6 2 18 0 25 -3 6 -5 1 -5 -13z"/>
<path d="M2560 1490 c0 -5 5 -10 10 -10 6 0 10 5 10 10 0 6 -4 10 -10 10 -5 0
-10 -4 -10 -10z"/>
<path d="M2470 1370 c0 -5 5 -10 11 -10 5 0 7 5 4 10 -3 6 -8 10 -11 10 -2 0
-4 -4 -4 -10z"/>
<path d="M2500 1351 c0 -6 5 -13 10 -16 6 -3 10 1 10 9 0 9 -4 16 -10 16 -5 0
-10 -4 -10 -9z"/>
<path d="M19 593 c-13 -15 -12 -15 9 -4 23 12 28 21 13 21 -5 0 -15 -7 -22
-17z"/>
<path d="M180 439 c-22 -18 -22 -19 -3 -10 12 6 25 16 28 21 9 15 3 12 -25
-11z"/>
</g>
</svg>
