<?xml version="1.0" encoding="utf-8"?>
<svg version="1.0" width="640.000000pt" height="640.000000pt" viewBox="0 0 640.000000 640.000000" preserveAspectRatio="xMidYMid meet" xmlns="http://www.w3.org/2000/svg">
  <g transform="translate(0.000000,640.000000) scale(0.100000,-0.100000)" fill="#000000" stroke="none">
    <path d="M 1634 5936 C 1703 5980 1097.494 5502.16 1078.764 5429.53 C 1047.366 5307.777 987 5180 1005 5166 C 1032 5146 1035 5149 1120 5315 C 1215 5498 1255 5556 1302 5573 C 1311 5576 1331 5598 1346 5622 C 1361 5646 1406 5697 1446 5735 C 1487 5774 1520 5811 1520 5818 C 1520 5837 1587 5906 1634 5936 Z"/>
    <path d="M 2745 6209 C 2674 6186 2580 6173 2364 6152 C 2320 6148 2285 6139 2274 6129 C 2263 6120 2238 6103 2217 6092 C 2173 6069 2081 5985 2079 5967 C 2078 5960 2078 5951 2079 5946 C 2080 5942 2073 5932 2063 5925 C 2053 5917 2045 5908 2044 5903 C 2042 5885 2021 5842 2010 5835 C 2004 5831 1992 5811 1983 5789 C 1975 5768 1962 5750 1954 5750 C 1946 5750 1940 5742 1940 5733 C 1939 5716 1938 5716 1927 5732 C 1912 5751 1880 5739 1880 5714 C 1880 5706 1874 5700 1868 5701 C 1838 5705 1830 5698 1830 5670 C 1830 5647 1825 5640 1811 5640 C 1791 5640 1776 5615 1787 5598 C 1790 5592 1788 5590 1783 5593 C 1770 5601 1713 5582 1687 5561 C 1643 5524 1640 5519 1650 5499 C 1661 5479 1680 5473 1680 5490 C 1680 5496 1684 5500 1689 5500 C 1694 5500 1696 5492 1693 5482 C 1691 5472 1694 5451 1700 5436 C 1708 5413 1713 5409 1723 5419 C 1732 5429 1731 5434 1718 5444 C 1708 5451 1703 5460 1707 5463 C 1710 5467 1718 5462 1725 5453 C 1738 5436 1776 5442 1766 5459 C 1758 5471 1769 5500 1781 5500 C 1786 5500 1790 5494 1790 5486 C 1790 5477 1798 5474 1815 5478 C 1829 5480 1840 5485 1840 5489 C 1840 5493 1847 5505 1856 5516 C 1864 5526 1869 5529 1865 5523 C 1861 5515 1866 5510 1877 5510 C 1894 5509 1894 5508 1876 5495 C 1859 5482 1859 5480 1872 5480 C 1881 5480 1892 5485 1895 5490 C 1899 5496 1910 5498 1920 5495 C 1930 5492 1941 5494 1945 5500 C 1955 5516 1970 5512 1964 5495 C 1960 5487 1963 5480 1969 5480 C 1975 5480 1980 5486 1980 5494 C 1980 5503 1989 5508 2003 5508 C 2054 5505 2081 5510 2074 5522 C 2066 5535 2086 5525 2113 5502 C 2130 5487 2145 5492 2145 5513 C 2145 5520 2157 5526 2173 5528 C 2188 5530 2200 5527 2200 5521 C 2200 5515 2209 5510 2221 5510 C 2232 5510 2239 5514 2236 5518 C 2234 5522 2246 5526 2265 5526 C 2284 5526 2297 5523 2295 5519 C 2292 5516 2320 5515 2357 5518 C 2404 5521 2421 5519 2416 5511 C 2411 5504 2418 5500 2434 5500 C 2447 5500 2466 5497 2474 5494 C 2486 5489 2489 5492 2484 5503 C 2480 5515 2486 5521 2505 5526 C 2519 5529 2534 5529 2538 5526 C 2541 5522 2534 5517 2522 5513 C 2510 5510 2503 5504 2506 5499 C 2509 5494 2517 5493 2523 5497 C 2541 5508 2643 5509 2664 5498 C 2676 5491 2679 5485 2672 5481 C 2666 5478 2680 5475 2702 5475 C 2726 5475 2745 5469 2748 5462 C 2750 5456 2758 5450 2766 5450 C 2774 5450 2806 5434 2836 5415 C 2878 5388 2888 5384 2880 5399 C 2875 5410 2865 5422 2860 5425 C 2854 5428 2850 5436 2850 5441 C 2850 5452 2907 5425 2912 5411 C 2913 5406 2935 5399 2959 5395 C 2998 5389 3002 5390 2991 5404 C 2980 5417 2982 5418 3009 5410 C 3030 5404 3040 5405 3043 5413 C 3045 5421 3053 5419 3064 5407 C 3084 5387 3086 5387 3108 5399 C 3153 5421 3189 5420 3220 5394 C 3252 5366 3261 5371 3233 5402 C 3215 5423 3232 5427 3252 5407 C 3276 5383 3308 5369 3315 5380 C 3319 5386 3339 5378 3365 5360 C 3389 5344 3413 5330 3418 5330 C 3424 5330 3430 5324 3433 5318 C 3436 5309 3443 5312 3454 5327 C 3468 5346 3474 5348 3501 5338 C 3518 5332 3534 5322 3537 5314 C 3539 5307 3549 5304 3557 5307 C 3568 5311 3571 5310 3566 5301 C 3561 5293 3565 5287 3579 5283 C 3591 5280 3600 5272 3600 5264 C 3600 5257 3609 5246 3621 5240 C 3636 5231 3640 5222 3636 5205 C 3632 5191 3636 5178 3646 5169 C 3675 5145 3701 5073 3703 5013 C 3703 4994 3709 4980 3716 4980 C 3722 4980 3730 4970 3734 4958 C 3743 4922 3741 4917 3725 4930 C 3716 4937 3706 4940 3703 4936 C 3699 4932 3701 4925 3708 4921 C 3715 4917 3721 4902 3720 4889 C 3720 4876 3720 4853 3719 4838 C 3719 4811 3719 4810 3695 4826 C 3664 4846 3662 4827 3692 4806 C 3704 4797 3711 4790 3707 4790 C 3703 4790 3705 4780 3712 4768 C 3719 4755 3725 4741 3726 4735 C 3733 4660 3768 4596 3795 4606 C 3803 4610 3810 4603 3812 4588 C 3814 4575 3820 4566 3826 4567 C 3832 4568 3836 4559 3835 4546 C 3831 4513 3785 4468 3756 4468 C 3742 4468 3729 4461 3726 4454 C 3719 4435 3700 4437 3683 4458 C 3675 4467 3672 4469 3676 4461 C 3683 4447 3682 4447 3611 4466 C 3594 4471 3589 4470 3594 4462 C 3598 4455 3595 4450 3586 4450 C 3577 4450 3570 4446 3570 4441 C 3570 4435 3555 4434 3537 4437 C 3514 4440 3500 4437 3491 4426 C 3484 4417 3471 4410 3464 4410 C 3456 4410 3450 4405 3450 4398 C 3450 4392 3444 4394 3437 4404 C 3420 4427 3382 4421 3330 4388 C 3301 4368 3290 4365 3290 4376 C 3290 4384 3296 4390 3304 4390 C 3311 4390 3323 4397 3330 4405 C 3337 4413 3340 4420 3337 4420 C 3324 4420 3275 4389 3274 4380 C 3273 4375 3272 4366 3271 4360 C 3271 4355 3264 4350 3256 4350 C 3221 4350 3121 4158 3142 4132 C 3153 4119 3168 4041 3174 3975 C 3175 3959 3180 3936 3186 3925 C 3197 3902 3198 3880 3187 3863 C 3182 3855 3189 3837 3205 3816 C 3219 3797 3240 3757 3250 3727 C 3270 3669 3313 3599 3363 3541 C 3410 3486 3440 3412 3429 3381 C 3410 3327 3394 3304 3345 3257 C 3288 3202 3263 3189 3220 3195 C 3196 3198 3190 3195 3190 3180 C 3190 3150 3239 3136 3283 3155 C 3329 3174 3330 3174 3330 3150 C 3330 3139 3336 3130 3343 3129 C 3349 3129 3345 3124 3332 3118 C 3317 3110 3311 3101 3316 3088 C 3319 3078 3317 3070 3311 3070 C 3305 3070 3300 3063 3300 3054 C 3300 3046 3303 3041 3308 3043 C 3318 3050 3335 3028 3335 3010 C 3335 3002 3329 2993 3322 2990 C 3312 2986 3313 2979 3328 2960 C 3356 2924 3365 2889 3349 2879 C 3337 2871 3338 2867 3351 2857 C 3360 2851 3365 2840 3363 2833 C 3358 2818 3370 2811 3416 2806 C 3437 2803 3456 2796 3458 2790 C 3460 2785 3468 2780 3475 2780 C 3482 2780 3491 2773 3494 2764 C 3503 2740 3501 2728 3489 2736 C 3475 2744 3407 2753 3364 2752 C 3347 2752 3311 2741 3285 2729 C 3233 2704 3199 2702 3110 2718 C 3019 2733 2933 2700 2757 2578 C 2737 2564 2712 2559 2656 2559 C 2597 2559 2577 2554 2559 2539 C 2547 2529 2540 2517 2543 2513 C 2547 2510 2594 2505 2647 2503 C 2701 2501 2758 2495 2774 2490 C 2812 2477 2830 2477 2830 2491 C 2830 2510 2860 2532 2877 2526 C 2885 2522 2908 2528 2926 2539 C 2957 2558 3063 2571 3076 2558 C 3079 2554 3089 2554 3097 2557 C 3105 2560 3116 2557 3121 2549 C 3126 2541 3130 2540 3130 2547 C 3130 2553 3139 2556 3150 2553 C 3167 2549 3170 2539 3170 2499 C 3170 2472 3168 2450 3165 2450 C 3162 2450 3153 2464 3146 2481 L 3133 2512 L 3126 2479 C 3121 2453 3117 2448 3110 2460 C 3105 2468 3098 2471 3094 2467 C 3090 2463 3081 2465 3073 2471 C 3063 2480 3060 2479 3060 2470 C 3060 2463 3053 2460 3045 2464 C 2995 2484 2997 2484 3011 2462 C 3018 2450 3027 2445 3030 2450 C 3033 2455 3041 2455 3050 2450 C 3062 2442 3062 2440 3047 2434 C 3018 2423 3028 2411 3060 2420 C 3083 2427 3092 2425 3100 2412 C 3109 2396 3109 2397 3110 2413 C 3110 2423 3115 2430 3121 2428 C 3137 2423 3134 2406 3114 2395 C 3104 2390 3090 2379 3082 2373 C 3075 2366 3060 2360 3050 2360 C 3040 2360 3028 2356 3025 2350 C 3019 2341 3063 2335 3118 2338 C 3141 2339 3148 2326 3130 2315 C 3125 2312 3120 2304 3120 2298 C 3120 2292 3129 2295 3140 2305 C 3151 2315 3157 2327 3154 2331 C 3151 2336 3154 2340 3159 2340 C 3173 2340 3173 2327 3160 2314 C 3144 2298 3174 2247 3202 2243 C 3244 2236 3254 2194 3215 2184 C 3201 2181 3190 2173 3190 2167 C 3190 2159 3187 2159 3179 2167 C 3165 2181 3140 2173 3140 2154 C 3140 2146 3151 2139 3168 2139 C 3183 2138 3212 2136 3233 2134 C 3255 2132 3268 2135 3265 2140 C 3261 2146 3265 2150 3272 2150 C 3291 2150 3313 2187 3299 2196 C 3293 2200 3284 2196 3279 2189 C 3272 2178 3270 2179 3270 2193 C 3270 2203 3266 2208 3260 2205 C 3255 2202 3250 2208 3250 2219 C 3250 2230 3246 2242 3240 2245 C 3226 2254 3228 2271 3243 2269 C 3281 2264 3300 2271 3300 2290 C 3300 2314 3308 2315 3338 2294 C 3350 2286 3360 2282 3360 2286 C 3360 2289 3366 2287 3373 2281 C 3390 2268 3400 2276 3400 2304 C 3401 2322 3403 2320 3417 2295 L 3434 2265 L 3444 2293 C 3450 2309 3461 2320 3472 2320 C 3482 2320 3490 2326 3490 2333 C 3490 2339 3499 2356 3509 2369 C 3522 2386 3533 2391 3546 2386 C 3564 2379 3564 2378 3546 2364 C 3530 2353 3529 2350 3542 2350 C 3551 2350 3560 2355 3562 2361 C 3567 2376 3600 2361 3600 2343 C 3600 2335 3604 2331 3609 2334 C 3614 2337 3615 2319 3612 2293 C 3608 2260 3611 2244 3622 2236 C 3630 2230 3639 2218 3642 2209 C 3647 2196 3644 2193 3629 2197 C 3611 2202 3604 2187 3609 2157 C 3610 2152 3597 2143 3580 2137 C 3563 2131 3550 2118 3550 2109 C 3550 2099 3546 2090 3540 2088 C 3535 2087 3540 2065 3550 2041 C 3571 1995 3568 1971 3544 1991 C 3527 2005 3525 1989 3542 1972 C 3551 1963 3551 1960 3542 1960 C 3532 1960 3532 1955 3541 1938 C 3552 1917 3552 1916 3537 1929 C 3523 1940 3520 1940 3519 1929 C 3518 1921 3518 1911 3519 1906 C 3520 1901 3514 1902 3506 1909 C 3494 1919 3492 1918 3497 1901 C 3500 1890 3508 1876 3515 1870 C 3532 1856 3524 1829 3505 1836 C 3498 1839 3490 1831 3486 1814 C 3477 1779 3467 1791 3466 1839 C 3465 1877 3450 1912 3450 1877 C 3450 1867 3444 1861 3438 1863 C 3431 1864 3424 1855 3422 1842 C 3420 1830 3423 1820 3428 1820 C 3434 1820 3441 1813 3444 1804 C 3448 1793 3444 1790 3427 1792 C 3409 1794 3406 1791 3408 1771 C 3410 1757 3408 1750 3401 1754 C 3396 1758 3387 1752 3381 1743 C 3373 1728 3370 1732 3370 1765 C 3369 1787 3366 1799 3363 1792 C 3361 1786 3354 1783 3348 1786 C 3342 1790 3340 1785 3344 1772 C 3349 1757 3345 1750 3329 1745 C 3315 1740 3304 1743 3299 1751 C 3289 1767 3248 1770 3238 1755 C 3233 1749 3230 1751 3230 1760 C 3229 1770 3220 1764 3204 1745 L 3179 1715 L 3184 1760 C 3187 1785 3187 1798 3184 1790 C 3174 1766 3138 1730 3123 1730 C 3107 1730 3107 1735 3120 1761 C 3127 1774 3128 1786 3121 1798 C 3112 1812 3111 1812 3110 1799 C 3110 1779 3087 1730 3078 1730 C 3073 1730 3070 1737 3070 1745 C 3070 1763 3054 1765 3044 1748 C 3040 1742 3042 1734 3048 1732 C 3055 1730 3060 1724 3060 1719 C 3060 1704 3038 1709 3024 1728 C 3014 1740 3011 1741 3010 1731 C 3010 1721 3007 1720 2996 1729 C 2985 1738 2978 1737 2966 1724 C 2950 1709 2948 1709 2934 1726 C 2920 1744 2920 1744 2922 1721 C 2927 1684 2904 1685 2895 1722 L 2887 1755 L 2880 1725 C 2876 1709 2872 1702 2871 1710 C 2870 1723 2869 1723 2859 1710 C 2850 1698 2849 1699 2853 1718 C 2856 1730 2854 1740 2849 1740 C 2844 1740 2840 1747 2840 1755 C 2840 1763 2835 1770 2830 1770 C 2823 1770 2823 1764 2830 1750 C 2838 1734 2838 1730 2826 1730 C 2818 1730 2808 1721 2805 1710 C 2802 1699 2794 1690 2789 1690 C 2774 1690 2779 1742 2797 1762 C 2806 1772 2808 1780 2802 1780 C 2796 1780 2784 1770 2776 1758 C 2767 1746 2760 1739 2760 1743 C 2760 1748 2753 1744 2744 1736 C 2736 1727 2723 1723 2717 1727 C 2710 1731 2697 1733 2687 1731 C 2672 1729 2670 1733 2675 1750 C 2681 1768 2678 1770 2658 1766 C 2645 1764 2623 1757 2608 1751 C 2585 1742 2580 1744 2575 1760 C 2571 1771 2564 1780 2559 1780 C 2553 1780 2551 1784 2554 1789 C 2560 1798 2488 1821 2455 1820 C 2444 1819 2422 1822 2405 1825 C 2389 1828 2365 1833 2353 1836 C 2339 1839 2333 1845 2336 1854 C 2342 1869 2326 1874 2240 1886 C 2194 1892 2173 1900 2203 1900 C 2212 1900 2220 1904 2220 1910 C 2220 1915 2207 1918 2191 1916 C 2172 1914 2159 1918 2156 1927 C 2152 1936 2143 1939 2130 1935 C 2118 1931 2110 1933 2110 1940 C 2110 1946 2115 1948 2120 1945 C 2126 1942 2130 1942 2130 1945 C 2130 1956 2102 1980 2090 1980 C 2084 1980 2082 1986 2085 1992 C 2089 1999 2080 1992 2065 1976 C 2047 1956 2032 1949 2015 1952 C 1999 1956 1993 1953 1997 1943 C 2000 1936 2006 1933 2012 1936 C 2017 1939 2024 1933 2027 1921 C 2030 1909 2040 1900 2052 1900 C 2064 1900 2070 1894 2068 1883 C 2066 1871 2071 1866 2081 1868 C 2090 1869 2102 1859 2108 1845 C 2114 1831 2126 1820 2135 1820 C 2143 1820 2155 1811 2162 1800 C 2169 1789 2180 1780 2187 1780 C 2194 1780 2200 1776 2200 1770 C 2200 1765 2207 1760 2215 1760 C 2223 1760 2232 1749 2236 1736 C 2240 1720 2247 1713 2256 1717 C 2264 1720 2279 1715 2290 1705 C 2300 1696 2314 1691 2321 1696 C 2328 1700 2331 1699 2327 1693 C 2320 1681 2383 1620 2402 1620 C 2408 1620 2422 1613 2432 1603 C 2442 1594 2450 1592 2450 1598 C 2450 1605 2460 1604 2478 1594 C 2493 1587 2510 1580 2517 1580 C 2524 1580 2527 1573 2524 1565 C 2520 1557 2512 1550 2504 1550 C 2484 1550 2487 1534 2508 1526 C 2517 1523 2530 1518 2535 1515 C 2541 1512 2551 1514 2559 1519 C 2571 1527 2571 1531 2561 1543 C 2545 1563 2556 1567 2605 1560 C 2640 1555 2642 1553 2623 1547 C 2591 1535 2595 1524 2633 1516 C 2657 1511 2662 1507 2650 1500 C 2642 1495 2639 1488 2643 1484 C 2647 1480 2658 1483 2667 1492 C 2682 1507 2682 1510 2666 1525 C 2657 1534 2650 1547 2650 1553 C 2650 1560 2657 1557 2664 1547 C 2680 1526 2691 1525 2684 1545 C 2677 1563 2680 1563 2716 1550 C 2750 1537 2796 1529 2835 1529 C 2863 1530 2864 1529 2846 1515 C 2825 1499 2830 1483 2851 1496 C 2897 1524 3095 1485 3095 1448 C 3095 1439 3099 1428 3103 1424 C 3107 1420 3110 1424 3110 1433 C 3110 1442 3115 1452 3121 1455 C 3136 1465 3223 1439 3234 1422 C 3238 1415 3258 1402 3276 1394 C 3308 1380 3311 1377 3307 1341 C 3305 1312 3294 1293 3267 1267 C 3247 1248 3230 1225 3230 1216 C 3230 1207 3226 1200 3220 1200 C 3215 1200 3207 1199 3203 1198 C 3194 1194 3140 1140 3140 1134 C 3140 1132 3151 1125 3165 1120 C 3189 1111 3200 1090 3180 1090 C 3175 1090 3170 1084 3170 1076 C 3170 1068 3159 1053 3145 1042 C 3131 1031 3120 1019 3120 1016 C 3120 1012 3111 999 3100 988 C 3086 972 3083 964 3092 959 C 3108 949 3036 880 3007 879 L 2985 879 L 3008 870 C 3025 863 3030 853 3030 826 C 3030 795 3025 789 2975 760 C 2945 743 2920 724 2920 719 C 2920 698 2875 660 2849 660 C 2828 660 2818 653 2809 631 C 2800 611 2793 605 2788 613 C 2782 622 2777 622 2763 612 C 2753 606 2735 596 2723 590 C 2710 585 2700 573 2700 565 C 2700 556 2705 552 2710 555 C 2716 558 2720 555 2720 547 C 2720 522 2658 497 2610 503 C 2507 514 2323 586 2165 678 C 2071 732 1853 875 1722 969 C 1526 1109 1502 1127 1439 1179 C 1246 1341 1105 1404 1014 1370 C 992 1361 988 1355 993 1331 C 997 1314 993 1295 984 1282 C 971 1263 972 1260 987 1251 C 997 1245 1000 1240 994 1240 C 989 1240 979 1245 973 1251 C 952 1272 885 1265 849 1237 C 830 1223 797 1207 775 1201 C 753 1195 720 1181 702 1170 C 662 1145 659 1125 698 1135 C 713 1139 732 1143 740 1144 C 749 1145 761 1149 768 1154 C 774 1158 780 1157 780 1151 C 780 1145 787 1143 796 1147 C 808 1151 811 1147 808 1124 C 805 1098 802 1096 760 1095 C 735 1094 705 1088 693 1082 C 681 1075 658 1070 641 1070 C 623 1070 600 1060 584 1045 C 569 1031 545 1017 531 1013 C 506 1007 481 984 480 967 C 480 962 484 962 490 965 C 495 968 500 969 500 965 C 500 962 488 955 474 950 C 457 943 450 935 454 925 C 459 910 454 907 390 884 C 381 881 379 876 386 872 C 412 856 396 832 356 825 C 333 821 321 816 327 813 C 334 810 340 802 340 794 C 340 786 345 780 352 780 C 358 780 375 767 389 750 C 403 734 451 700 495 675 C 539 650 568 630 561 630 C 543 630 423 686 388 711 C 374 722 355 730 346 730 C 337 730 330 734 330 738 C 330 751 251 750 243 736 C 232 718 200 708 199 723 C 199 730 195 724 189 712 C 184 699 171 686 160 683 C 149 680 140 674 140 669 C 140 665 122 656 100 650 C 47 636 35 616 84 622 C 104 624 120 624 120 620 C 120 617 93 596 60 573 C 16 541 0 524 0 506 C 0 490 5 483 17 484 C 41 487 90 512 86 519 C 84 522 93 525 106 525 C 119 525 130 522 130 518 C 130 514 140 514 153 519 C 180 529 210 512 210 486 C 210 477 215 470 220 470 C 236 470 232 455 210 430 C 199 417 190 406 190 405 C 190 397 226 407 232 417 C 237 423 249 426 261 423 C 277 418 279 415 268 408 C 260 402 276 401 315 404 C 469 420 540 421 540 408 C 540 399 543 399 550 410 C 558 423 560 422 565 409 C 569 398 581 394 601 396 C 619 398 629 396 625 390 C 622 384 609 380 597 380 C 580 380 578 378 590 371 C 598 365 607 363 611 366 C 615 368 629 366 643 361 C 660 354 671 355 680 363 C 690 372 694 372 697 363 C 699 356 708 354 717 357 C 728 361 731 359 726 352 C 721 344 724 342 734 346 C 745 350 750 346 750 336 C 750 327 755 320 761 320 C 766 320 768 325 765 330 C 762 336 766 340 774 340 C 782 340 794 331 800 320 C 806 309 820 300 832 300 C 848 300 850 297 841 287 C 828 271 836 263 920 208 C 950 188 998 151 1025 125 C 1056 96 1062 88 1040 104 C 904 206 823 252 693 299 C 546 353 495 363 336 365 C 175 368 160 366 159 341 C 159 330 157 329 153 338 C 149 349 145 349 131 337 C 110 319 29 288 22 295 C 19 298 26 308 39 316 C 66 335 53 356 21 345 C 1 339 0 332 0 224 C 0 136 3 110 13 110 C 28 110 155 144 185 155 C 205 163 205 163 186 142 C 176 130 164 122 160 125 C 156 127 144 123 134 115 C 124 107 103 100 88 100 C 72 100 60 96 60 91 C 60 86 47 80 30 77 C 3 71 0 66 0 35 L 0 0 L 1975 0 L 3950 0 L 3926 38 C 3913 59 3892 101 3879 130 C 3810 295 3683 419 3496 505 C 3408 545 3310 642 3311 687 C 3311 702 3327 760 3346 815 C 3382 921 3405 991 3447 1132 C 3471 1212 3489 1373 3509 1487 C 3522 1558 3534 1629 3537 1646 C 3540 1666 3552 1683 3569 1693 C 3601 1712 3780 1882 3780 1893 C 3780 1898 3789 1909 3799 1918 C 3810 1928 3829 1953 3841 1975 C 3891 2066 3939 2163 3960 2217 C 3990 2297 3995 2308 4019 2362 C 4031 2388 4040 2412 4040 2415 C 4040 2418 4051 2437 4064 2458 C 4085 2490 4090 2514 4100 2650 C 4106 2735 4115 2843 4120 2890 C 4139 3060 4149 3147 4162 3250 C 4180 3397 4180 3788 4161 3799 C 4151 3805 4149 3819 4154 3846 C 4159 3874 4158 3881 4151 3870 C 4142 3857 4140 3858 4139 3875 C 4136 3935 4128 3999 4120 4030 C 4114 4049 4111 4090 4112 4120 C 4112 4150 4115 4162 4117 4145 C 4119 4129 4125 4095 4131 4070 C 4137 4045 4144 4014 4147 4000 C 4154 3963 4160 3963 4160 3999 C 4160 4017 4155 4041 4149 4053 C 4137 4074 4134 4592 4145 4610 C 4148 4615 4144 4636 4135 4656 C 4117 4700 4117 4703 4131 4694 C 4144 4687 4134 4783 4120 4811 C 4115 4819 4109 4844 4107 4866 C 4101 4913 4038 5111 4012 5160 C 3990 5203 3965 5242 3925 5295 C 3909 5317 3887 5354 3878 5378 C 3868 5401 3852 5439 3843 5462 C 3833 5485 3807 5527 3785 5557 C 3763 5586 3729 5631 3710 5657 C 3669 5714 3625 5760 3588 5784 C 3573 5794 3549 5826 3535 5855 C 3505 5915 3499 5921 3367 6024 C 3273 6097 3204 6140 3179 6140 C 3172 6140 3153 6151 3135 6164 C 3083 6204 3032 6220 2957 6220 C 2905 6220 2882 6216 2868 6203 C 2850 6187 2850 6187 2856 6203 C 2861 6217 2856 6220 2819 6219 C 2795 6219 2762 6214 2745 6209 Z M 2122 5988 C 2115 5981 2109 5967 2109 5956 C 2108 5939 2107 5939 2103 5952 C 2098 5971 2118 6015 2128 6006 C 2131 6002 2128 5994 2122 5988 Z M 2180 6006 C 2180 6003 2176 5998 2170 5995 C 2165 5992 2160 5994 2160 5999 C 2160 6005 2165 6010 2170 6010 C 2176 6010 2180 6008 2180 6006 Z M 2145 5960 C 2148 5955 2146 5950 2141 5950 C 2135 5950 2130 5955 2130 5960 C 2130 5966 2132 5970 2134 5970 C 2137 5970 2142 5966 2145 5960 Z M 2210 5883 C 2185 5857 2164 5833 2162 5830 C 2160 5828 2155 5832 2150 5840 C 2143 5851 2145 5858 2156 5865 C 2165 5871 2188 5887 2207 5903 C 2259 5943 2260 5936 2210 5883 Z M 2002 5758 C 1995 5751 1990 5750 1990 5756 C 1990 5770 2002 5782 2009 5775 C 2011 5772 2008 5764 2002 5758 Z M 2030 5745 C 2030 5737 2026 5730 2020 5730 C 2015 5730 2013 5737 2016 5745 C 2020 5753 2024 5760 2026 5760 C 2028 5760 2030 5753 2030 5745 Z M 1849 5565 C 1850 5542 1847 5539 1840 5550 C 1835 5558 1831 5581 1831 5600 C 1831 5629 1833 5631 1840 5615 C 1845 5604 1849 5582 1849 5565 Z M 2965 5430 C 2968 5425 2966 5420 2961 5420 C 2955 5420 2950 5425 2950 5430 C 2950 5436 2952 5440 2954 5440 C 2957 5440 2962 5436 2965 5430 Z M 3720 5126 C 3734 5108 3734 5107 3712 5119 C 3700 5126 3692 5136 3696 5141 C 3699 5147 3703 5150 3704 5148 C 3705 5146 3712 5136 3720 5126 Z M 3767 4953 C 3767 4937 3766 4933 3763 4943 C 3761 4952 3754 4960 3749 4960 C 3744 4960 3740 4965 3740 4970 C 3740 4994 3766 4977 3767 4953 Z M 3757 4724 C 3754 4721 3745 4720 3738 4723 C 3730 4726 3733 4729 3744 4729 C 3755 4730 3761 4727 3757 4724 Z M 3220 4261 C 3220 4256 3213 4250 3206 4247 C 3196 4243 3193 4246 3197 4256 C 3203 4271 3220 4275 3220 4261 Z M 3802 4224 C 3837 4219 3866 4200 3841 4200 C 3835 4200 3830 4195 3830 4189 C 3830 4184 3834 4181 3839 4184 C 3852 4192 3863 4139 3851 4127 C 3844 4120 3822 4122 3783 4133 C 3751 4142 3692 4157 3653 4166 C 3595 4179 3580 4187 3580 4201 C 3580 4232 3686 4244 3802 4224 Z M 3600 4105 C 3600 4104 3593 4087 3585 4069 L 3571 4035 L 3570 4077 C 3570 4111 3573 4118 3585 4114 C 3593 4110 3600 4107 3600 4105 Z M 3920 4100 C 3920 4095 3918 4090 3916 4090 C 3913 4090 3908 4095 3905 4100 C 3902 4106 3904 4110 3909 4110 C 3915 4110 3920 4106 3920 4100 Z M 3720 4076 C 3720 4073 3716 4068 3710 4065 C 3705 4062 3700 4064 3700 4069 C 3700 4075 3705 4080 3710 4080 C 3716 4080 3720 4078 3720 4076 Z M 3420 4060 C 3420 4055 3418 4050 3416 4050 C 3413 4050 3408 4055 3405 4060 C 3402 4066 3404 4070 3409 4070 C 3415 4070 3420 4066 3420 4060 Z M 3629 4004 C 3631 4002 3630 3993 3626 3984 C 3621 3971 3617 3970 3605 3980 C 3593 3990 3590 3989 3590 3976 C 3590 3958 3629 3938 3644 3948 C 3649 3951 3650 3946 3647 3936 C 3643 3926 3644 3921 3650 3925 C 3656 3928 3660 3938 3660 3946 C 3660 3954 3669 3960 3680 3960 C 3693 3960 3698 3955 3694 3945 C 3690 3937 3683 3930 3677 3930 C 3671 3930 3670 3927 3673 3923 C 3677 3920 3690 3925 3701 3936 C 3723 3955 3723 3955 3715 3930 C 3708 3907 3708 3907 3725 3923 C 3741 3940 3743 3940 3755 3923 C 3762 3914 3766 3901 3764 3895 C 3762 3890 3792 3875 3831 3863 C 3886 3846 3907 3843 3922 3851 C 3937 3859 3944 3859 3950 3850 C 3955 3842 3959 3843 3964 3856 C 3970 3872 3972 3872 3988 3854 C 4052 3783 4084 3715 4061 3701 C 4049 3693 4059 3588 4076 3545 C 4083 3528 4081 3527 4068 3537 C 4051 3552 4040 3544 4040 3517 C 4040 3504 4035 3500 4024 3504 C 4012 3509 4009 3506 4015 3493 C 4019 3483 4024 3458 4027 3438 C 4031 3409 4029 3399 4016 3394 C 4007 3391 4000 3378 4000 3366 C 4000 3349 3998 3348 3990 3360 C 3982 3373 3980 3372 3980 3356 C 3980 3345 3987 3328 3996 3318 C 4009 3305 4010 3297 4001 3287 C 3995 3279 3994 3270 3998 3265 C 4002 3261 3994 3261 3981 3265 C 3966 3270 3960 3268 3964 3262 C 3972 3249 3960 3219 3949 3225 C 3945 3228 3944 3238 3947 3246 C 3952 3259 3948 3261 3929 3255 C 3916 3251 3901 3241 3896 3232 C 3889 3220 3886 3220 3878 3231 C 3873 3240 3872 3230 3877 3205 C 3881 3183 3884 3155 3885 3143 C 3885 3130 3888 3120 3892 3120 C 3901 3120 3911 3036 3914 2937 C 3916 2895 3920 2857 3923 2853 C 3927 2850 3925 2841 3920 2835 C 3913 2826 3913 2814 3922 2795 C 3932 2773 3931 2767 3920 2760 C 3906 2751 3890 2764 3890 2785 C 3890 2791 3895 2788 3900 2780 C 3906 2771 3910 2770 3910 2777 C 3910 2783 3902 2795 3893 2802 C 3874 2816 3830 2892 3830 2909 C 3830 2914 3818 2931 3803 2947 C 3787 2963 3761 2991 3744 3010 C 3704 3055 3663 3090 3650 3090 C 3634 3090 3590 3121 3590 3132 C 3590 3137 3579 3158 3565 3178 C 3547 3205 3540 3228 3540 3265 C 3539 3292 3532 3333 3524 3355 C 3515 3377 3508 3403 3507 3412 C 3506 3421 3502 3427 3499 3424 C 3495 3422 3489 3424 3485 3430 C 3482 3435 3483 3440 3488 3440 C 3493 3440 3495 3451 3492 3465 C 3487 3494 3497 3497 3516 3473 C 3523 3463 3530 3460 3530 3467 C 3530 3473 3526 3482 3520 3485 C 3515 3488 3510 3504 3510 3521 C 3510 3537 3506 3550 3500 3550 C 3495 3550 3490 3563 3490 3579 C 3490 3596 3485 3612 3480 3615 C 3474 3619 3472 3625 3475 3630 C 3484 3645 3461 3690 3445 3690 C 3435 3690 3432 3685 3436 3678 C 3441 3671 3439 3670 3431 3675 C 3424 3679 3421 3692 3424 3703 C 3427 3715 3424 3730 3418 3737 C 3412 3744 3411 3750 3415 3750 C 3418 3750 3412 3766 3399 3786 C 3387 3806 3381 3825 3386 3829 C 3391 3832 3395 3841 3396 3848 C 3399 3881 3400 3882 3415 3870 C 3424 3862 3430 3862 3430 3868 C 3430 3874 3445 3880 3463 3882 C 3490 3884 3496 3890 3498 3913 C 3500 3932 3507 3940 3521 3940 C 3532 3940 3540 3947 3540 3958 C 3540 3967 3536 3971 3532 3965 C 3528 3960 3515 3955 3502 3954 C 3484 3953 3480 3958 3483 3972 C 3486 3983 3484 3987 3478 3984 C 3472 3980 3469 3983 3472 3991 C 3478 4010 3525 4019 3580 4013 C 3605 4010 3627 4006 3629 4004 Z M 3325 3970 C 3322 3965 3315 3960 3309 3960 C 3304 3960 3300 3965 3300 3970 C 3300 3976 3307 3980 3316 3980 C 3324 3980 3328 3976 3325 3970 Z M 4072 3902 C 4069 3892 4071 3889 4078 3894 C 4086 3899 4090 3894 4090 3881 C 4090 3856 4082 3855 4058 3877 C 4037 3896 4035 3911 4052 3928 C 4067 3943 4081 3925 4072 3902 Z M 3514 3258 C 3517 3245 3515 3234 3510 3232 C 3504 3230 3500 3223 3500 3216 C 3500 3209 3489 3193 3476 3181 C 3459 3165 3446 3161 3426 3166 C 3400 3172 3400 3173 3416 3191 C 3425 3202 3443 3210 3456 3210 C 3485 3210 3494 3224 3475 3240 C 3463 3250 3462 3256 3471 3266 C 3488 3287 3507 3283 3514 3258 Z M 3570 2729 C 3570 2724 3574 2721 3579 2724 C 3584 2728 3586 2721 3583 2710 C 3577 2687 3577 2687 3561 2718 C 3553 2732 3553 2740 3560 2740 C 3565 2740 3570 2735 3570 2729 Z M 3770 2670 C 3770 2665 3766 2660 3760 2660 C 3755 2660 3750 2665 3750 2670 C 3750 2676 3755 2680 3760 2680 C 3766 2680 3770 2676 3770 2670 Z M 3328 2557 C 3334 2552 3340 2531 3340 2509 C 3340 2473 3338 2469 3320 2475 C 3304 2480 3301 2478 3307 2464 C 3312 2451 3310 2448 3297 2453 C 3284 2458 3280 2454 3280 2439 C 3280 2423 3284 2420 3301 2425 C 3316 2430 3320 2429 3316 2421 C 3312 2415 3314 2410 3319 2410 C 3325 2410 3330 2405 3330 2398 C 3330 2389 3327 2389 3319 2397 C 3310 2406 3297 2404 3267 2389 C 3223 2366 3166 2369 3156 2395 C 3150 2412 3165 2424 3182 2414 C 3190 2409 3192 2427 3187 2484 L 3180 2562 L 3230 2558 C 3258 2557 3280 2558 3280 2562 C 3280 2571 3310 2568 3328 2557 Z M 3375 2560 C 3381 2550 3370 2496 3363 2503 C 3361 2505 3355 2521 3350 2539 C 3343 2563 3344 2570 3355 2570 C 3363 2570 3371 2566 3375 2560 Z M 3460 2347 C 3460 2339 3453 2333 3445 2333 C 3437 2333 3430 2339 3430 2347 C 3430 2354 3437 2360 3445 2360 C 3453 2360 3460 2354 3460 2347 Z M 2140 1880 C 2130 1874 2131 1871 2141 1868 C 2148 1866 2150 1858 2146 1852 C 2141 1843 2135 1844 2123 1855 C 2111 1867 2111 1874 2120 1885 C 2127 1893 2137 1897 2142 1894 C 2148 1890 2148 1885 2140 1880 Z M 2280 1834 C 2280 1815 2264 1824 2249 1851 C 2239 1870 2240 1871 2259 1860 C 2271 1854 2280 1842 2280 1834 Z M 2420 1801 C 2420 1796 2408 1795 2393 1798 C 2369 1803 2368 1804 2385 1810 C 2406 1818 2420 1814 2420 1801 Z M 3287 1738 C 3284 1730 3281 1733 3281 1744 C 3280 1755 3283 1761 3286 1757 C 3289 1754 3290 1745 3287 1738 Z M 3303 838 C 3305 820 3303 802 3298 799 C 3292 795 3292 790 3299 785 C 3306 782 3309 771 3306 762 C 3303 752 3296 700 3290 645 C 3269 445 3268 440 3246 425 C 3217 404 3173 406 3143 430 C 3129 441 3112 450 3105 450 C 3098 450 3074 468 3051 490 C 3015 525 3010 535 3010 575 C 3010 608 3014 620 3025 620 C 3033 620 3040 625 3040 630 C 3040 636 3035 640 3030 640 C 3024 640 3028 657 3039 678 C 3049 698 3060 739 3063 768 C 3068 813 3066 819 3054 809 C 3042 800 3040 803 3040 830 C 3040 855 3043 860 3053 853 C 3066 842 3174 851 3186 863 C 3190 867 3217 870 3246 870 C 3297 870 3298 869 3303 838 Z M 3007 644 C 3004 641 2995 640 2988 643 C 2980 646 2983 649 2994 649 C 3005 650 3011 647 3007 644 Z M 2750 556 C 2750 553 2746 548 2740 545 C 2735 542 2730 544 2730 549 C 2730 555 2735 560 2740 560 C 2746 560 2750 558 2750 556 Z M 260 182 C 260 177 249 168 235 162 C 204 148 202 163 233 178 C 261 192 260 191 260 182 Z"/>
    <path d="M3517 3560 c3 -11 12 -20 20 -20 11 0 11 4 3 20 -6 11 -15 20 -19 20 -5 0 -7 -9 -4 -20z"/>
    <path d="M3690 3355 c0 -8 5 -15 10 -15 6 0 10 7 10 15 0 8 -4 15 -10 15 -5 0 -10 -7 -10 -15z"/>
    <path d="M3880 3009 c0 -5 5 -7 10 -4 6 3 10 8 10 11 0 2 -4 4 -10 4 -5 0 -10 -5 -10 -11z"/>
    <path d="M3240 2500 c-1 -8 -3 -29 -4 -46 -3 -27 -1 -31 15 -27 11 3 19 10 19 17 -1 20 -28 72 -30 56z"/>
    <path d="M1741 5686 c4 -4 -4 -19 -17 -33 -30 -32 -32 -53 -3 -27 31 28 41 51 27 60 -7 4 -10 4 -7 0z"/>
    <path d="M1768 5673 c-4 -14 1 -18 22 -18 23 0 26 2 16 18 -6 9 -16 17 -22 17 -7 0 -14 -8 -16 -17z"/>
    <path d="M1746 5621 c-17 -6 -17 -8 -4 -14 10 -3 19 0 22 9 3 8 4 14 3 13 -1 0 -11 -4 -21 -8z"/>
    <path d="M1641 5584 c0 -11 3 -14 6 -6 3 7 2 16 -1 19 -3 4 -6 -2 -5 -13z"/>
    <path d="M1623 5477 c4 -10 7 -27 7 -38 0 -25 17 -24 31 3 10 18 9 20 -5 15 -10 -4 -15 -3 -12 2 3 5 -2 15 -11 22 -15 12 -16 12 -10 -4z"/>
    <path d="M2910 5370 c8 -5 20 -10 25 -10 6 0 3 5 -5 10 -8 5 -19 10 -25 10 -5 0 -3 -5 5 -10z"/>
    <path d="M3060 5370 c-9 -6 -10 -10 -3 -10 6 0 15 5 18 10 8 12 4 12 -15 0z"/>
    <path d="M2978 5353 c12 -2 32 -2 45 0 12 2 2 4 -23 4 -25 0 -35 -2 -22 -4z"/>
    <path d="M1477 5253 c-6 -16 -14 -30 -17 -33 -15 -13 -52 -82 -46 -87 3 -3 9 3 13 13 3 10 9 21 12 24 21 18 64 72 54 66 -16 -9 -16 -1 -3 25 6 10 8 19 5 19 -3 0 -11 -12 -18 -27z"/>
    <path d="M1432 5098 c-8 -8 -8 -15 -1 -24 7 -9 7 -20 -1 -36 -11 -22 -10 -22 4 -4 9 11 16 25 16 32 0 7 3 19 6 28 7 19 -7 21 -24 4z"/>
    <path d="M3216 4364 c-8 -21 -8 -24 4 -24 6 0 10 6 10 14 0 8 8 17 18 19 13 4 12 5 -4 6 -12 0 -25 -6 -28 -15z"/>
    <path d="M2494 4362 c4 -7 -7 -13 -31 -17 -21 -3 -51 -8 -66 -10 -15 -3 -26 -1 -22 4 7 12 -85 11 -109 -2 -16 -8 -18 -6 -13 8 5 11 3 15 -5 12 -7 -2 -12 -10 -10 -16 1 -6 -3 -11 -8 -11 -6 0 -10 -7 -8 -16 2 -10 -3 -19 -9 -21 -7 -3 -13 2 -13 11 0 12 -10 14 -52 10 -49 -4 -52 -3 -34 11 11 8 15 15 8 15 -6 0 -19 -8 -29 -19 -21 -21 -69 -35 -77 -22 -4 5 0 12 6 14 8 4 7 6 -4 6 -9 1 -19 -7 -21 -16 -4 -17 -5 -17 -6 0 -1 24 -31 21 -71 -8 -19 -14 -38 -25 -43 -25 -5 0 -31 -16 -57 -35 -26 -19 -53 -35 -60 -35 -7 0 -10 -7 -7 -14 4 -9 -2 -17 -14 -21 -27 -9 -24 -24 4 -18 12 3 18 1 12 -4 -13 -11 -47 -75 -42 -80 2 -2 17 1 32 7 45 17 41 3 -4 -17 -22 -10 -41 -20 -41 -24 0 -3 11 -12 25 -19 14 -7 25 -17 25 -22 0 -5 10 -6 22 -2 21 6 22 5 8 -11 -14 -16 -12 -17 20 -10 48 10 72 24 64 37 -4 7 -3 8 4 4 7 -4 17 -4 23 0 8 4 7 9 -2 15 -9 5 -5 10 13 14 15 4 29 13 32 20 3 8 23 19 45 26 23 7 41 16 41 21 0 4 11 8 24 8 14 0 37 5 53 11 39 16 66 19 165 22 66 2 89 -1 93 -11 3 -8 0 -12 -7 -9 -7 2 -20 -1 -28 -8 -8 -8 -69 -32 -135 -54 -141 -48 -184 -70 -246 -125 -25 -23 -70 -50 -100 -60 -74 -26 -82 -36 -26 -36 44 0 62 -12 35 -23 -8 -3 -5 -6 5 -6 10 -1 27 4 39 10 11 6 34 12 51 15 18 2 71 16 119 31 67 21 88 32 88 46 0 22 27 34 42 19 6 -6 18 -8 27 -3 9 4 43 9 75 10 33 1 63 4 66 6 3 2 12 -1 20 -6 13 -7 13 -10 1 -18 -9 -6 -6 -8 12 -8 19 0 24 4 20 16 -4 13 -2 13 7 -1 11 -19 40 -25 40 -9 0 5 -7 12 -16 15 -9 4 -14 9 -11 12 3 3 14 1 25 -5 15 -8 22 -8 26 2 3 6 4 0 2 -15 -2 -19 1 -28 10 -28 8 0 14 -9 14 -20 0 -24 13 -26 30 -5 7 8 16 13 20 10 5 -3 11 -2 14 3 7 12 -26 38 -46 34 -12 -2 -15 2 -11 16 3 15 12 18 39 16 24 -2 34 2 34 12 0 10 12 14 39 14 53 0 73 29 23 33 -11 0 -19 4 -17 7 2 3 35 5 74 4 l70 -2 7 32 c3 17 9 36 13 41 3 6 6 21 6 35 0 20 -6 26 -28 28 -21 3 -27 8 -23 20 15 54 18 62 26 62 5 0 7 -8 4 -17 -2 -10 0 -7 7 7 6 14 15 33 20 42 13 26 11 32 -6 18 -13 -11 -15 -8 -15 14 0 45 -24 27 -66 -49 -11 -20 -24 -36 -30 -34 -5 2 -8 7 -6 12 1 4 -2 7 -6 7 -4 0 -6 30 -5 68 4 66 3 67 -12 39 -16 -27 -17 -28 -32 -10 -14 17 -14 17 -9 0 3 -11 9 -31 12 -45 l6 -27 -21 30 -21 30 0 -35 -1 -35 -18 23 c-19 21 -38 31 -26 13 3 -5 -13 -2 -35 6 -22 9 -40 20 -40 25 0 17 30 20 60 5 16 -9 30 -12 30 -7 0 4 -8 11 -17 14 -15 6 -15 8 -3 16 12 8 11 10 -7 10 -12 0 -29 3 -39 7 -11 4 -15 3 -10 -5z m251 -136 c0 -15 -4 -21 -9 -16 -5 5 -6 16 -3 24 9 22 12 20 12 -8z m-560 -66 c3 -5 -1 -10 -9 -10 -8 0 -18 5 -21 10 -3 6 1 10 9 10 8 0 18 -4 21 -10z m-85 -10 c0 -5 -2 -10 -4 -10 -3 0 -8 5 -11 10 -3 6 -1 10 4 10 6 0 11 -4 11 -10z m357 -112 c17 -19 17 -20 -2 -34 -34 -25 -60 -14 -63 27 -3 34 -1 36 22 32 14 -3 33 -14 43 -25z m226 12 c20 -18 -11 -17 -33 1 l-25 20 25 -6 c14 -4 29 -11 33 -15z m67 -11 c0 -6 -4 -7 -10 -4 -5 3 -10 11 -10 16 0 6 5 7 10 4 6 -3 10 -11 10 -16z m-446 -21 c-7 -26 -23 -55 -25 -48 -4 21 -6 56 -2 63 2 4 11 7 19 7 11 0 13 -6 8 -22z m-164 -112 c0 -5 -7 -3 -15 4 -8 7 -12 17 -9 22 7 10 24 -9 24 -26z"/>
    <path d="M2190 4340 c0 -5 7 -7 15 -4 8 4 15 8 15 10 0 2 -7 4 -15 4 -8 0 -15 -4 -15 -10z"/>
    <path d="M2716 4308 c-18 -25 -20 -38 -7 -38 5 0 14 14 20 30 12 36 8 38 -13 8z"/>
    <path d="M3190 4320 c-13 -8 -12 -10 3 -10 9 0 17 5 17 10 0 12 -1 12 -20 0z"/>
    <path d="M1335 4270 c-4 -11 -10 -18 -14 -16 -4 3 -8 -1 -8 -9 0 -8 4 -15 9 -15 4 0 8 5 8 11 0 5 3 8 8 6 4 -3 8 6 8 19 2 29 -2 31 -11 4z"/>
    <path d="M2672 3900 c-9 -16 -25 -30 -35 -30 -10 0 -15 -5 -12 -10 10 -16 43 6 60 40 20 39 9 39 -13 0z"/>
    <path d="M2246 3910 c-15 -5 -16 -9 -7 -14 7 -5 18 -3 24 3 14 14 6 20 -17 11z"/>
    <path d="M2330 3911 c0 -6 5 -13 10 -16 6 -3 10 1 10 9 0 9 -4 16 -10 16 -5 0 -10 -4 -10 -9z"/>
    <path d="M2168 3903 c7 -3 16 -2 19 1 4 3 -2 6 -13 5 -11 0 -14 -3 -6 -6z"/>
    <path d="M1132 3843 c-8 -8 -11 -21 -8 -30 4 -10 2 -14 -8 -10 -7 3 -19 0 -25 -6 -9 -9 -14 -8 -21 4 -7 12 -28 16 -94 17 -77 1 -87 -1 -101 -21 -15 -22 -20 -104 -7 -122 11 -17 35 -12 62 13 14 13 33 30 42 39 26 24 95 9 137 -29 29 -26 34 -37 32 -67 -2 -44 -18 -61 -62 -70 -26 -5 -39 -16 -54 -46 -11 -22 -26 -45 -34 -51 -13 -10 -13 -19 -1 -67 7 -31 17 -54 22 -51 4 3 8 -4 8 -15 0 -12 4 -21 8 -21 5 0 15 -11 22 -25 12 -22 20 -25 67 -25 39 0 62 -6 82 -21 16 -11 38 -19 51 -17 20 3 18 6 -18 33 -22 16 -38 34 -35 38 3 4 -1 14 -7 22 -20 24 -21 107 -3 120 32 24 52 133 43 235 -2 19 0 52 3 73 3 20 2 35 -3 32 -5 -3 -9 -13 -8 -23 0 -9 -7 -35 -16 -57 l-16 -40 6 56 c6 54 5 56 -18 54 -20 -2 -24 3 -28 46 -4 40 -7 45 -18 32z"/>
    <path d="M1280 3774 c0 -8 5 -12 10 -9 6 4 8 11 5 16 -9 14 -15 11 -15 -7z"/>
    <path d="M1070 3655 c0 -9 5 -15 11 -13 6 2 11 8 11 13 0 5 -5 11 -11 13 -6 2 -11 -4 -11 -13z"/>
    <path d="M2936 3215 c-52 -18 -60 -28 -46 -55 8 -15 17 -19 28 -15 9 4 33 11 52 17 19 5 44 13 55 19 11 5 41 7 67 5 55 -5 68 6 36 28 -28 20 -137 21 -192 1z"/>
    <path d="M 991 3167 C 982 3140 1282.244 2952.082 1287.244 2333.082 C 1290.244 1883.082 993 1487 996 1478 C 1011 1427 1072 1492 1279 1780 C 1346 1873 1397 2034 1364 2047 C 1351 2052 1351 2054 1364 2069 C 1372 2078 1381 2117 1385 2155 C 1394 2245 1392 2403 1381 2410 C 1377 2413 1373 2433 1373 2455 C 1371 2552 1368 2584 1358 2608 C 1352 2623 1348 2677 1349 2728 C 1351 2815 1350 2822 1331 2827 C 1319 2830 1310 2841 1310 2852 C 1310 2865 1304 2870 1293 2869 C 1241 2862 1129 2959 1111 3027 C 1105 3050 1095 3072 1090 3075 C 1084 3079 1071 3098 1060 3118 C 1049 3138 1032 3166 1022 3179 L 1003 3203 L 991 3167 Z"/>
    <path d="M2982 3020 c-7 -11 -8 -20 -3 -20 9 0 24 30 18 36 -1 2 -8 -6 -15 -16z"/>
    <path d="M3300 3020 c0 -5 5 -10 11 -10 5 0 7 5 4 10 -3 6 -8 10 -11 10 -2 0 -4 -4 -4 -10z"/>
    <path d="M2890 2946 c0 -9 30 -14 35 -6 4 6 -3 10 -14 10 -12 0 -21 -2 -21 -4z"/>
    <path d="M2864 2915 c3 -24 12 -27 27 -8 9 11 10 14 2 9 -7 -4 -13 -2 -13 3 0 6 -4 11 -9 11 -5 0 -8 -7 -7 -15z"/>
    <path d="M2895 2890 c-3 -5 -1 -10 4 -10 6 0 11 5 11 10 0 6 -2 10 -4 10 -3 0 -8 -4 -11 -10z"/>
    <path d="M2815 2860 c-3 -5 -1 -10 4 -10 6 0 11 5 11 10 0 6 -2 10 -4 10 -3 0 -8 -4 -11 -10z"/>
    <path d="M2732 2840 c0 -14 2 -19 5 -12 2 6 2 18 0 25 -3 6 -5 1 -5 -13z"/>
    <path d="M2607 2813 c-11 -10 -8 -20 6 -20 8 0 14 6 14 14 0 14 -10 17 -20 6z"/>
    <path d="M2530 2794 c0 -8 5 -12 10 -9 6 4 8 11 5 16 -9 14 -15 11 -15 -7z"/>
    <path d="M2695 2799 c-11 -17 1 -21 15 -4 8 9 8 15 2 15 -6 0 -14 -5 -17 -11z"/>
    <path d="M2548 2737 c-35 -14 -46 -38 -15 -33 12 2 21 9 20 15 -2 6 3 11 11 11 8 0 18 5 21 10 7 12 -1 11 -37 -3z"/>
    <path d="M2475 2680 c-3 -5 -1 -10 4 -10 6 0 11 5 11 10 0 6 -2 10 -4 10 -3 0 -8 -4 -11 -10z"/>
    <path d="M2337 2663 c-4 -3 -7 -11 -7 -17 0 -6 5 -5 12 2 6 6 9 14 7 17 -3 3 -9 2 -12 -2z"/>
    <path d="M2480 2640 c-9 -6 -10 -10 -3 -10 6 0 15 5 18 10 8 12 4 12 -15 0z"/>
    <path d="M2535 2600 c-3 -5 -1 -10 4 -10 6 0 11 5 11 10 0 6 -2 10 -4 10 -3 0 -8 -4 -11 -10z"/>
    <path d="M2306 2575 c-3 -8 -1 -15 4 -15 6 0 10 7 10 15 0 8 -2 15 -4 15 -2 0 -6 -7 -10 -15z"/>
    <path d="M2404 2489 c-27 -29 -27 -31 -5 -19 24 12 24 12 17 -26 -5 -22 -8 -47 -9 -56 -1 -10 -5 -18 -10 -18 -4 0 -6 -4 -2 -10 10 -16 36 2 34 24 -3 45 1 71 10 58 6 -10 11 -9 22 4 12 15 12 17 0 9 -11 -6 -13 -4 -8 9 4 10 3 15 -3 11 -18 -11 -32 5 -19 21 24 29 2 23 -27 -7z"/>
    <path d="M2887 2482 c-4 -6 -14 -9 -22 -5 -8 3 -15 0 -15 -6 0 -6 13 -11 28 -11 15 0 33 -5 39 -11 7 -7 12 -3 15 15 4 22 3 24 -13 16 -12 -7 -19 -6 -21 2 -3 9 -6 9 -11 0z"/>
    <path d="M2339 2463 c-13 -16 -12 -17 4 -4 9 7 17 15 17 17 0 8 -8 3 -21 -13z"/>
    <path d="M2950 2456 c0 -9 5 -16 10 -16 6 0 10 4 10 9 0 6 -4 13 -10 16 -5 3 -10 -1 -10 -9z"/>
    <path d="M2980 2440 c0 -5 5 -10 11 -10 5 0 7 5 4 10 -3 6 -8 10 -11 10 -2 0 -4 -4 -4 -10z"/>
    <path d="M3026 2283 c-6 -14 -5 -15 5 -6 7 7 10 15 7 18 -3 3 -9 -2 -12 -12z"/>
    <path d="M3070 2284 c0 -8 5 -12 10 -9 6 3 10 10 10 16 0 5 -4 9 -10 9 -5 0 -10 -7 -10 -16z"/>
    <path d="M3143 2233 c-1 -33 0 -35 7 -13 11 35 11 50 2 50 -5 0 -9 -17 -9 -37z"/>
    <path d="M2284 2245 c-10 -8 -14 -15 -8 -15 6 0 17 7 24 15 16 19 9 19 -16 0z"/>
    <path d="M3290 2249 c0 -5 5 -7 10 -4 6 3 10 8 10 11 0 2 -4 4 -10 4 -5 0 -10 -5 -10 -11z"/>
    <path d="M3095 2160 c-3 -5 -1 -10 4 -10 6 0 11 5 11 10 0 6 -2 10 -4 10 -3 0 -8 -4 -11 -10z"/>
    <path d="M3317 2163 c-4 -3 -7 -11 -7 -17 0 -6 5 -5 12 2 6 6 9 14 7 17 -3 3 -9 2 -12 -2z"/>
    <path d="M2068 2113 c6 -2 18 -2 25 0 6 3 1 5 -13 5 -14 0 -19 -2 -12 -5z"/>
    <path d="M2165 2080 c4 -6 11 -8 16 -5 14 9 11 15 -7 15 -8 0 -12 -5 -9 -10z"/>
    <path d="M1955 1980 c-3 -5 1 -10 10 -10 9 0 13 5 10 10 -3 6 -8 10 -10 10 -2 0 -7 -4 -10 -10z"/>
    <path d="M2125 1980 c3 -5 8 -10 11 -10 2 0 4 5 4 10 0 6 -5 10 -11 10 -5 0 -7 -4 -4 -10z"/>
    <path d="M3450 1956 c0 -2 7 -9 15 -16 9 -7 15 -8 15 -2 0 5 -7 12 -15 16 -8 3 -15 4 -15 2z"/>
    <path d="M2253 1933 c9 -2 23 -2 30 0 6 3 -1 5 -18 5 -16 0 -22 -2 -12 -5z"/>
    <path d="M2258 1903 c7 -3 16 -2 19 1 4 3 -2 6 -13 5 -11 0 -14 -3 -6 -6z"/>
    <path d="M3141 1810 c0 -8 4 -22 9 -30 12 -18 12 -2 0 25 -6 13 -9 15 -9 5z"/>
    <path d="M2975 1800 c3 -5 8 -10 11 -10 2 0 4 5 4 10 0 6 -5 10 -11 10 -5 0 -7 -4 -4 -10z"/>
    <path d="M3014 1776 c-8 -22 3 -33 18 -18 9 9 9 15 0 24 -9 9 -13 7 -18 -6z"/>
    <path d="M2330 1610 c-11 -7 -6 -10 20 -10 26 0 31 3 20 10 -8 5 -17 10 -20 10 -3 0 -12 -5 -20 -10z"/>
    <path d="M2440 1545 c0 -8 5 -15 10 -15 6 0 10 7 10 15 0 8 -4 15 -10 15 -5 0 -10 -7 -10 -15z"/>
    <path d="M2560 1490 c0 -5 5 -10 10 -10 6 0 10 5 10 10 0 6 -4 10 -10 10 -5 0 -10 -4 -10 -10z"/>
    <path d="M2470 1370 c0 -5 5 -10 11 -10 5 0 7 5 4 10 -3 6 -8 10 -11 10 -2 0 -4 -4 -4 -10z"/>
    <path d="M2500 1351 c0 -6 5 -13 10 -16 6 -3 10 1 10 9 0 9 -4 16 -10 16 -5 0 -10 -4 -10 -9z"/>
    <path d="M19 593 c-13 -15 -12 -15 9 -4 23 12 28 21 13 21 -5 0 -15 -7 -22 -17z"/>
    <path d="M180 439 c-22 -18 -22 -19 -3 -10 12 6 25 16 28 21 9 15 3 12 -25 -11z"/>
  </g>
</svg>